<svg xmlns="http://www.w3.org/2000/svg" xmlns:xlink="http://www.w3.org/1999/xlink" width="1500" zoomAndPan="magnify" viewBox="0 0 1125 374.999991" height="500" preserveAspectRatio="xMidYMid meet" version="1.0"><defs><g/><clipPath id="c13c6dd5f5"><path d="M 17.25 0 L 1107.75 0 C 1112.324219 0 1116.710938 1.816406 1119.949219 5.050781 C 1123.183594 8.289062 1125 12.675781 1125 17.25 L 1125 357.75 C 1125 362.324219 1123.183594 366.710938 1119.949219 369.949219 C 1116.710938 373.183594 1112.324219 375 1107.75 375 L 17.25 375 C 12.675781 375 8.289062 373.183594 5.050781 369.949219 C 1.816406 366.710938 0 362.324219 0 357.75 L 0 17.25 C 0 12.675781 1.816406 8.289062 5.050781 5.050781 C 8.289062 1.816406 12.675781 0 17.25 0 " clip-rule="nonzero"/></clipPath><clipPath id="ddb5a30d22"><path d="M 636.09375 42.699219 L 1074.011719 42.699219 L 1074.011719 104.261719 L 636.09375 104.261719 Z M 636.09375 42.699219 " clip-rule="nonzero"/></clipPath><clipPath id="6533356c58"><path d="M 622.515625 103 L 1041 103 L 1041 105 L 622.515625 105 Z M 622.515625 103 " clip-rule="nonzero"/></clipPath><clipPath id="85fdd810ca"><path d="M 629.859375 38.582031 L 1060.007812 38.582031 L 1060.007812 136.027344 L 629.859375 136.027344 Z M 629.859375 38.582031 " clip-rule="nonzero"/></clipPath></defs><g clip-path="url(#c13c6dd5f5)"><rect x="-112.5" width="1350" fill="#5e17eb" y="-37.499999" height="449.999989" fill-opacity="1"/></g><path fill="#ffffff" d="M 803.734375 116.660156 C 787.746094 116.660156 771.597656 109.734375 754.503906 102.402344 C 734.351562 93.761719 713.507812 84.824219 691.761719 87.144531 C 652.222656 91.363281 630.789062 104 630.578125 104.128906 L 630.351562 103.753906 C 630.5625 103.625 652.070312 90.9375 691.714844 86.710938 C 713.582031 84.382812 734.472656 93.335938 754.675781 102 C 771.730469 109.316406 787.835938 116.222656 803.734375 116.222656 C 820.898438 116.222656 836.582031 106.109375 853.191406 95.402344 C 870.179688 84.453125 887.742188 73.132812 907.945312 72.339844 C 931.378906 71.414062 949.164062 85.417969 964.847656 97.765625 C 975.875 106.449219 985.402344 113.949219 995.089844 115.058594 C 1007.238281 116.453125 1012.871094 113.308594 1018.828125 109.980469 C 1024.609375 106.75 1030.589844 103.40625 1042.894531 103.40625 L 1042.894531 103.84375 C 1030.703125 103.84375 1024.773438 107.15625 1019.042969 110.359375 C 1013.019531 113.722656 1007.335938 116.902344 995.039062 115.492188 C 985.226562 114.367188 975.65625 106.832031 964.574219 98.105469 C 948.953125 85.808594 931.226562 71.871094 907.964844 72.777344 C 887.878906 73.5625 870.367188 84.855469 853.429688 95.769531 C 836.765625 106.511719 821.023438 116.660156 803.734375 116.660156 " fill-opacity="1" fill-rule="nonzero"/><path fill="#ffffff" d="M 805.65625 113.726562 C 789.273438 113.726562 773.246094 107.03125 756.285156 99.949219 C 736.449219 91.664062 715.9375 83.097656 693.996094 85.460938 C 652.339844 89.96875 631.285156 103.945312 631.078125 104.085938 L 630.832031 103.722656 C 631.042969 103.582031 652.183594 89.542969 693.949219 85.027344 C 716.007812 82.652344 736.570312 91.238281 756.453125 99.542969 C 773.585938 106.699219 789.789062 113.449219 806.277344 113.285156 C 823.46875 113.105469 839.589844 103.066406 856.664062 92.433594 C 861.269531 89.566406 866.03125 86.597656 870.851562 83.8125 C 881.308594 77.761719 895.304688 70.71875 910.851562 69.972656 C 934.933594 68.75 952.949219 82.851562 968.839844 95.289062 C 979.464844 103.605469 988.640625 110.785156 998.003906 112.324219 C 1010.015625 114.300781 1015.566406 111.769531 1022 108.84375 C 1027.550781 106.316406 1033.84375 103.453125 1045.488281 103.441406 L 1045.488281 103.875 C 1033.9375 103.890625 1027.695312 106.734375 1022.183594 109.242188 C 1015.953125 112.074219 1010.070312 114.75 997.933594 112.753906 C 988.457031 111.199219 979.242188 103.984375 968.570312 95.632812 C 952.742188 83.242188 934.792969 69.203125 910.871094 70.410156 C 895.417969 71.148438 881.484375 78.164062 871.070312 84.1875 C 866.257812 86.972656 861.496094 89.9375 856.894531 92.804688 C 839.769531 103.46875 823.59375 113.542969 806.28125 113.722656 C 806.074219 113.726562 805.863281 113.726562 805.65625 113.726562 " fill-opacity="1" fill-rule="nonzero"/><path fill="#ffffff" d="M 1010.9375 111.222656 C 1008.066406 111.222656 1004.78125 110.871094 1000.828125 110.015625 C 991.695312 108.046875 982.421875 100.832031 972.605469 93.195312 C 956.570312 80.71875 938.378906 66.578125 913.78125 68.039062 C 901.699219 68.757812 889.414062 73.015625 873.9375 81.84375 C 869.421875 84.417969 864.964844 87.101562 860.660156 89.695312 C 842.957031 100.355469 826.238281 110.425781 808.828125 110.785156 C 791.601562 111.132812 775.324219 104.523438 758.082031 97.511719 C 738.558594 89.578125 718.371094 81.371094 696.234375 83.777344 C 652.480469 88.570312 631.785156 103.886719 631.582031 104.042969 L 631.316406 103.695312 C 631.519531 103.539062 652.300781 88.148438 696.183594 83.34375 C 718.429688 80.921875 738.671875 89.152344 758.246094 97.109375 C 775.445312 104.101562 791.683594 110.699219 808.820312 110.347656 C 826.113281 109.992188 842.78125 99.949219 860.433594 89.320312 C 864.742188 86.726562 869.199219 84.042969 873.722656 81.464844 C 889.257812 72.601562 901.605469 68.324219 913.753906 67.601562 C 938.523438 66.136719 956.777344 80.324219 972.875 92.847656 C 982.648438 100.457031 991.886719 107.640625 1000.921875 109.589844 C 1012.863281 112.167969 1018.671875 110.101562 1025.390625 107.707031 C 1030.933594 105.734375 1037.210938 103.5 1048.082031 103.472656 L 1048.082031 103.910156 C 1037.285156 103.9375 1031.046875 106.160156 1025.539062 108.121094 C 1020.976562 109.746094 1016.832031 111.222656 1010.9375 111.222656 " fill-opacity="1" fill-rule="nonzero"/><path fill="#ffffff" d="M 1016.265625 109.171875 C 1012.792969 109.171875 1008.804688 108.648438 1003.722656 107.277344 C 994.957031 104.917969 986.101562 98.050781 976.726562 90.785156 C 960.46875 78.1875 942.042969 63.90625 916.691406 65.671875 C 904.605469 66.511719 892.304688 70.777344 876.804688 79.5 C 872.730469 81.785156 868.71875 84.128906 864.835938 86.394531 C 846.398438 97.148438 828.984375 107.308594 811.378906 107.851562 C 810.667969 107.871094 809.957031 107.882812 809.25 107.882812 C 792.222656 107.882812 776.5 101.664062 759.890625 95.097656 C 740.671875 87.5 720.792969 79.644531 698.46875 82.097656 C 652.609375 87.175781 632.28125 103.832031 632.082031 104 L 631.800781 103.664062 C 632 103.496094 652.417969 86.757812 698.421875 81.664062 C 720.855469 79.195312 740.78125 87.074219 760.050781 94.691406 C 777.308594 101.515625 793.609375 107.960938 811.363281 107.414062 C 828.859375 106.875 846.226562 96.742188 864.617188 86.015625 C 868.5 83.75 872.511719 81.40625 876.589844 79.117188 C 892.148438 70.363281 904.507812 66.082031 916.660156 65.234375 C 942.191406 63.460938 960.675781 77.792969 976.992188 90.441406 C 986.335938 97.679688 995.15625 104.519531 1003.835938 106.855469 C 1015.847656 110.09375 1021.707031 108.550781 1029.128906 106.601562 C 1034.570312 105.167969 1040.742188 103.542969 1050.671875 103.503906 L 1050.675781 103.941406 C 1040.800781 103.980469 1034.65625 105.597656 1029.238281 107.023438 C 1024.894531 108.167969 1021.078125 109.171875 1016.265625 109.171875 " fill-opacity="1" fill-rule="nonzero"/><path fill="#ffffff" d="M 1021.964844 107.339844 C 1017.738281 107.339844 1013.019531 106.621094 1006.617188 104.539062 C 998.253906 101.820312 989.847656 95.316406 980.949219 88.429688 C 964.460938 75.671875 945.769531 61.210938 919.601562 63.300781 C 907.664062 64.253906 894.976562 68.65625 879.671875 77.152344 C 876.25 79.046875 872.871094 80.960938 869.605469 82.8125 C 849.355469 94.28125 831.871094 104.183594 813.925781 104.914062 C 795.433594 105.664062 779.058594 99.367188 761.710938 92.703125 C 742.785156 85.433594 723.222656 77.914062 700.707031 80.414062 C 652.742188 85.777344 632.777344 103.773438 632.582031 103.957031 L 632.285156 103.636719 C 632.480469 103.453125 652.53125 85.363281 700.65625 79.980469 C 723.277344 77.46875 742.894531 85.007812 761.867188 92.296875 C 779.171875 98.945312 795.527344 105.222656 813.90625 104.476562 C 831.746094 103.753906 849.191406 93.871094 869.386719 82.433594 C 872.65625 80.582031 876.035156 78.667969 879.460938 76.769531 C 894.816406 68.242188 907.5625 63.824219 919.566406 62.867188 C 945.910156 60.769531 964.664062 75.277344 981.214844 88.082031 C 990.082031 94.945312 998.460938 101.425781 1006.75 104.125 C 1019.035156 108.121094 1025.070312 107.046875 1033.425781 105.558594 C 1038.628906 104.632812 1044.527344 103.585938 1053.265625 103.535156 L 1053.265625 103.972656 C 1044.566406 104.023438 1038.6875 105.066406 1033.5 105.988281 C 1029.4375 106.714844 1025.914062 107.339844 1021.964844 107.339844 " fill-opacity="1" fill-rule="nonzero"/><path fill="#ffffff" d="M 1028.546875 105.808594 C 1023.140625 105.808594 1017.585938 104.898438 1009.511719 101.800781 C 1001.59375 98.761719 993.679688 92.632812 985.300781 86.144531 C 968.558594 73.183594 949.578125 58.488281 922.511719 60.933594 C 910.546875 62.011719 897.84375 66.421875 882.539062 74.808594 C 880.074219 76.152344 877.648438 77.492188 875.261719 78.8125 C 853.636719 90.742188 834.960938 101.046875 816.472656 101.976562 C 797.351562 102.9375 780.164062 96.527344 763.539062 90.328125 C 744.90625 83.375 725.640625 76.191406 702.941406 78.730469 C 652.867188 84.382812 633.273438 103.71875 633.082031 103.914062 L 632.769531 103.605469 C 632.960938 103.410156 652.648438 83.96875 702.894531 78.296875 C 725.695312 75.742188 745.011719 82.949219 763.691406 89.917969 C 781.039062 96.386719 797.417969 102.496094 816.449219 101.539062 C 834.835938 100.613281 853.472656 90.332031 875.046875 78.429688 C 877.4375 77.109375 879.863281 75.769531 882.328125 74.421875 C 897.691406 66.007812 910.445312 61.582031 922.46875 60.496094 C 949.71875 58.035156 968.761719 72.789062 985.566406 85.800781 C 993.921875 92.269531 1001.808594 98.378906 1009.667969 101.390625 C 1022.539062 106.332031 1028.964844 105.664062 1038.691406 104.65625 C 1043.386719 104.171875 1048.707031 103.621094 1055.855469 103.570312 L 1055.859375 104.007812 C 1048.730469 104.058594 1043.421875 104.605469 1038.738281 105.089844 C 1035.042969 105.472656 1031.824219 105.808594 1028.546875 105.808594 " fill-opacity="1" fill-rule="nonzero"/><path fill="#ffffff" d="M 1036.902344 104.714844 C 1029.234375 104.714844 1022.78125 103.675781 1012.40625 99.058594 C 1004.992188 95.761719 997.621094 90.03125 989.816406 83.964844 C 972.796875 70.730469 953.503906 55.730469 925.417969 58.5625 C 913.417969 59.773438 900.703125 64.1875 885.40625 72.460938 L 882.324219 74.125 C 858.734375 86.871094 838.355469 97.878906 819.019531 99.039062 C 799.257812 100.21875 782.03125 93.992188 765.375 87.96875 C 747.027344 81.328125 728.054688 74.464844 705.179688 77.046875 C 652.996094 82.988281 633.765625 103.660156 633.578125 103.871094 L 633.253906 103.578125 C 633.445312 103.367188 652.765625 82.574219 705.128906 76.613281 C 728.109375 74.019531 747.128906 80.902344 765.523438 87.554688 C 782.140625 93.566406 799.324219 99.78125 818.992188 98.605469 C 838.234375 97.449219 858.570312 86.460938 882.117188 73.742188 L 885.199219 72.078125 C 900.546875 63.777344 913.3125 59.34375 925.375 58.128906 C 953.640625 55.28125 973 70.335938 990.085938 83.621094 C 997.867188 89.671875 1005.21875 95.382812 1012.582031 98.660156 C 1026.550781 104.875 1033.367188 104.5625 1045.753906 104 C 1049.398438 103.832031 1053.53125 103.644531 1058.449219 103.601562 L 1058.453125 104.039062 C 1053.542969 104.082031 1049.414062 104.269531 1045.773438 104.4375 C 1042.507812 104.585938 1039.628906 104.714844 1036.902344 104.714844 " fill-opacity="1" fill-rule="nonzero"/><path fill="#ffffff" d="M 1049.027344 104.199219 C 1036.542969 104.199219 1028.824219 103.207031 1015.300781 96.316406 C 1008.464844 92.835938 1001.703125 87.539062 994.542969 81.925781 C 977.210938 68.339844 957.558594 52.941406 928.328125 56.195312 C 916.273438 57.535156 903.546875 61.960938 888.273438 70.117188 C 860.4375 84.945312 840.757812 94.769531 821.566406 96.101562 C 801.148438 97.527344 783.902344 91.476562 767.21875 85.625 C 749.152344 79.292969 730.46875 72.742188 707.414062 75.367188 C 653.125 81.589844 634.261719 103.605469 634.078125 103.828125 L 633.742188 103.546875 C 633.925781 103.324219 652.882812 81.179688 707.363281 74.929688 C 730.519531 72.292969 749.25 78.863281 767.363281 85.214844 C 784.003906 91.046875 801.214844 97.085938 821.535156 95.667969 C 840.640625 94.339844 860.28125 84.535156 888.066406 69.730469 C 903.390625 61.546875 916.167969 57.109375 928.28125 55.757812 C 957.695312 52.480469 977.414062 67.945312 994.8125 81.582031 C 1001.957031 87.179688 1008.703125 92.46875 1015.496094 95.929688 C 1031.402344 104.03125 1039.242188 103.925781 1056.421875 103.691406 C 1057.890625 103.671875 1059.425781 103.652344 1061.042969 103.632812 L 1061.046875 104.070312 C 1059.429688 104.085938 1057.894531 104.109375 1056.429688 104.128906 C 1053.757812 104.164062 1051.3125 104.199219 1049.027344 104.199219 " fill-opacity="1" fill-rule="nonzero"/><path fill="#ffffff" d="M 1059.492188 104.132812 C 1041.769531 104.132812 1033.382812 102.351562 1018.195312 93.578125 C 1012.03125 90.015625 1005.960938 85.191406 999.53125 80.082031 C 981.839844 66.027344 961.789062 50.097656 931.238281 53.824219 C 919.28125 55.285156 906.164062 59.84375 891.140625 67.769531 C 862.6875 82.746094 842.597656 91.703125 824.113281 93.167969 C 803.042969 94.832031 785.769531 88.972656 769.070312 83.300781 C 751.277344 77.261719 732.875 71.019531 709.652344 73.683594 C 653.230469 80.199219 634.753906 103.546875 634.574219 103.78125 L 634.226562 103.519531 C 634.273438 103.457031 638.902344 97.511719 650.46875 90.84375 C 661.125 84.703125 680.03125 76.664062 709.601562 73.25 C 732.921875 70.570312 751.371094 76.832031 769.210938 82.890625 C 785.871094 88.542969 803.09375 94.394531 824.082031 92.730469 C 842.488281 91.273438 862.53125 82.335938 890.9375 67.382812 C 906.007812 59.433594 919.175781 54.855469 931.183594 53.390625 C 961.917969 49.636719 982.042969 65.632812 999.800781 79.742188 C 1006.21875 84.839844 1012.277344 89.65625 1018.414062 93.199219 C 1034.648438 102.578125 1043.085938 103.917969 1063.632812 103.667969 L 1063.640625 104.101562 C 1062.199219 104.121094 1060.820312 104.132812 1059.492188 104.132812 " fill-opacity="1" fill-rule="nonzero"/><path fill="#ffffff" d="M 1064.007812 104.152344 C 1046.664062 104.152344 1036.710938 100.996094 1021.089844 90.835938 C 1015.710938 87.335938 1010.429688 83.050781 1004.835938 78.515625 C 986.738281 63.832031 966.226562 47.1875 934.148438 51.457031 C 922.105469 53.054688 908.976562 57.625 894.007812 65.425781 C 871.335938 77.214844 847.488281 88.382812 826.664062 90.230469 C 804.925781 92.15625 787.640625 86.484375 770.921875 80.996094 C 753.398438 75.242188 735.277344 69.292969 711.886719 72 C 681.3125 75.554688 662.054688 83.996094 651.28125 90.453125 C 639.613281 97.445312 635.117188 103.679688 635.070312 103.742188 L 634.714844 103.488281 C 634.757812 103.425781 639.292969 97.132812 651.027344 90.097656 C 661.835938 83.609375 681.164062 75.132812 711.835938 71.566406 C 735.320312 68.847656 753.492188 74.8125 771.058594 80.582031 C 787.734375 86.054688 804.96875 91.714844 826.621094 89.796875 C 847.375 87.957031 871.175781 76.808594 893.804688 65.035156 C 908.820312 57.214844 921.996094 52.628906 934.089844 51.023438 C 966.359375 46.730469 986.945312 63.4375 1005.113281 78.175781 C 1010.695312 82.707031 1015.96875 86.984375 1021.328125 90.46875 C 1037.515625 101 1047.578125 103.964844 1066.226562 103.699219 L 1066.230469 104.136719 C 1065.476562 104.148438 1064.734375 104.152344 1064.007812 104.152344 " fill-opacity="1" fill-rule="nonzero"/><path fill="#ffffff" d="M 1067.328125 104.179688 C 1049.410156 104.179688 1038.558594 98.707031 1023.984375 88.09375 C 1019.527344 84.847656 1015.160156 81.195312 1010.535156 77.328125 C 991.96875 61.804688 970.929688 44.210938 937.058594 49.085938 C 924.914062 50.832031 911.769531 55.410156 896.875 63.078125 C 867.667969 78.097656 846.796875 85.566406 829.210938 87.292969 C 806.796875 89.496094 789.507812 84.011719 772.78125 78.707031 C 755.523438 73.234375 737.671875 67.574219 714.125 70.316406 C 682.445312 74.019531 662.773438 82.902344 651.847656 89.699219 C 640.015625 97.0625 635.613281 103.632812 635.570312 103.695312 L 635.203125 103.457031 C 635.246094 103.390625 639.683594 96.757812 651.585938 89.347656 C 662.550781 82.519531 682.292969 73.597656 714.070312 69.882812 C 737.71875 67.128906 755.609375 72.804688 772.914062 78.289062 C 789.597656 83.582031 806.84375 89.050781 829.167969 86.859375 C 846.699219 85.136719 867.519531 77.683594 896.671875 62.691406 C 911.613281 55 924.800781 50.40625 936.996094 48.652344 C 971.0625 43.753906 992.179688 61.410156 1010.816406 76.992188 C 1015.433594 80.855469 1019.796875 84.503906 1024.242188 87.738281 C 1039.140625 98.589844 1050.109375 104.039062 1068.816406 103.730469 L 1068.824219 104.167969 C 1068.320312 104.175781 1067.820312 104.179688 1067.328125 104.179688 " fill-opacity="1" fill-rule="nonzero"/><path fill="#ffffff" d="M 1070.253906 104.210938 C 1053.449219 104.210938 1041.558594 97.261719 1026.878906 85.347656 C 1023.496094 82.601562 1020.183594 79.710938 1016.679688 76.648438 C 997.585938 59.980469 975.945312 41.085938 939.964844 46.714844 C 927.742188 48.59375 914.585938 53.179688 899.742188 60.734375 C 872 74.839844 850.394531 82.347656 831.757812 84.355469 C 808.667969 86.84375 791.371094 81.554688 774.644531 76.433594 C 757.644531 71.230469 740.0625 65.851562 716.359375 68.632812 C 683.554688 72.492188 663.460938 81.820312 652.382812 88.964844 C 640.394531 96.695312 636.105469 103.585938 636.066406 103.65625 L 635.691406 103.425781 C 635.734375 103.359375 640.074219 96.382812 652.144531 88.597656 C 663.265625 81.425781 683.421875 72.066406 716.308594 68.199219 C 740.101562 65.410156 757.730469 70.800781 774.773438 76.015625 C 791.457031 81.121094 808.710938 86.402344 831.710938 83.921875 C 850.292969 81.917969 871.847656 74.425781 899.542969 60.34375 C 914.429688 52.769531 927.628906 48.167969 939.898438 46.285156 C 976.078125 40.621094 997.800781 59.589844 1016.964844 76.320312 C 1020.46875 79.378906 1023.777344 82.269531 1027.15625 85.011719 C 1042.089844 97.132812 1054.105469 104.097656 1071.410156 103.761719 L 1071.417969 104.199219 C 1071.027344 104.207031 1070.636719 104.210938 1070.253906 104.210938 " fill-opacity="1" fill-rule="nonzero"/><g clip-path="url(#ddb5a30d22)"><path fill="#ffffff" d="M 1073.054688 104.242188 C 1053.105469 104.242188 1038.695312 90.90625 1023.449219 76.800781 C 997.457031 52.75 968 25.492188 902.609375 58.386719 C 872.828125 73.367188 847.722656 81.128906 825.863281 82.109375 C 806.367188 82.988281 791.183594 78.507812 776.507812 74.179688 C 759.761719 69.238281 742.449219 64.132812 718.59375 66.953125 C 684.714844 70.957031 664.210938 80.710938 652.976562 88.191406 C 640.8125 96.292969 636.601562 103.539062 636.558594 103.613281 L 636.179688 103.398438 C 636.222656 103.324219 640.464844 96.007812 652.703125 87.851562 C 663.976562 80.335938 684.550781 70.535156 718.542969 66.519531 C 742.488281 63.6875 759.847656 68.808594 776.632812 73.761719 C 805.898438 82.394531 836.164062 91.320312 902.410156 57.996094 C 968.074219 24.96875 997.652344 52.335938 1023.746094 76.480469 C 1039.167969 90.75 1053.730469 104.242188 1074 103.796875 L 1074.011719 104.234375 C 1073.691406 104.238281 1073.371094 104.242188 1073.054688 104.242188 " fill-opacity="1" fill-rule="nonzero"/></g><g clip-path="url(#6533356c58)"><path fill="#ffffff" d="M 1040.171875 104.234375 L 622.515625 104.234375 L 622.515625 103.796875 L 1040.171875 103.796875 L 1040.171875 104.234375 " fill-opacity="1" fill-rule="nonzero"/></g><path fill="#ffffff" d="M 753.347656 106.5 C 752.289062 106.5 751.601562 106.464844 751.378906 106.382812 C 749.996094 105.890625 729.476562 104.0625 707.5 102.632812 C 681.296875 100.929688 665.089844 100.578125 664.148438 101.699219 C 662.628906 103.511719 627.101562 104.191406 623.054688 104.261719 L 623.046875 103.824219 C 638.855469 103.546875 662.761719 102.675781 663.8125 101.417969 C 665.171875 99.800781 688.335938 100.949219 707.53125 102.195312 C 727.769531 103.511719 749.976562 105.417969 751.527344 105.972656 C 752.730469 106.402344 771.863281 105.355469 800.285156 103.308594 C 825.398438 101.5 847.703125 99.632812 848.984375 99.230469 C 850.472656 98.765625 870.972656 100.257812 889.660156 101.808594 C 908.285156 103.355469 928.613281 105.257812 929.609375 105.730469 C 930.84375 106.320312 959.957031 104.382812 975.597656 103.34375 C 983.039062 102.851562 988.417969 102.484375 989.0625 102.507812 C 989.640625 102.515625 993.523438 102.613281 998.949219 102.75 C 1013.003906 103.101562 1039.164062 103.753906 1041.589844 103.753906 L 1041.589844 104.191406 C 1039.160156 104.191406 1013.980469 103.5625 998.9375 103.1875 C 993.515625 103.050781 989.628906 102.953125 989.054688 102.941406 C 989.042969 102.941406 989.03125 102.941406 989.019531 102.941406 C 988.246094 102.941406 982.664062 103.3125 975.628906 103.78125 C 952.921875 105.289062 930.65625 106.710938 929.421875 106.125 C 927.175781 105.054688 851.371094 98.941406 849.117188 99.644531 C 847.625 100.113281 822.621094 102.136719 800.316406 103.742188 C 790.601562 104.441406 761.359375 106.5 753.347656 106.5 " fill-opacity="1" fill-rule="nonzero"/><path fill="#ffffff" d="M 755.082031 108.785156 C 753.835938 108.785156 752.957031 108.710938 752.5 108.546875 C 749.679688 107.542969 729.445312 103.859375 708.335938 101.03125 C 682.800781 97.609375 667.050781 96.957031 665.132812 99.246094 C 662.105469 102.855469 625.164062 104.230469 623.59375 104.289062 L 623.578125 103.851562 C 623.960938 103.835938 661.894531 102.429688 664.796875 98.964844 C 667.417969 95.835938 689.953125 98.125 708.394531 100.597656 C 729.53125 103.429688 749.808594 107.125 752.648438 108.136719 C 758.535156 110.234375 845.28125 96.101562 849.910156 94.652344 C 853.363281 93.574219 879.257812 97.910156 890.226562 99.824219 C 909.078125 103.117188 927.222656 106.769531 929.058594 107.644531 C 931.382812 108.75 954.277344 105.667969 970.996094 103.414062 C 980.238281 102.167969 987.554688 101.195312 989.046875 101.214844 C 990.6875 101.25 998.21875 101.632812 1006.941406 102.078125 C 1021.1875 102.804688 1038.914062 103.710938 1043.007812 103.710938 L 1043.007812 104.148438 C 1038.902344 104.148438 1021.167969 103.242188 1006.917969 102.515625 C 998.199219 102.070312 990.671875 101.683594 989.035156 101.652344 C 989.015625 101.652344 988.992188 101.652344 988.96875 101.652344 C 987.355469 101.652344 980.148438 102.621094 971.058594 103.847656 C 953.347656 106.234375 931.308594 109.199219 928.871094 108.039062 C 925.78125 106.566406 855.777344 93.273438 850.042969 95.070312 C 845.523438 96.484375 770.933594 108.785156 755.082031 108.785156 " fill-opacity="1" fill-rule="nonzero"/><path fill="#ffffff" d="M 756.511719 111.039062 C 755.226562 111.039062 754.246094 110.933594 753.621094 110.710938 C 743.378906 107.058594 673.050781 88.519531 666.117188 96.789062 C 661.605469 102.167969 625.660156 104.230469 624.132812 104.316406 L 624.109375 103.878906 C 624.480469 103.859375 661.394531 101.742188 665.78125 96.507812 C 673.089844 87.789062 746.503906 107.707031 753.765625 110.300781 C 762.390625 113.371094 841.335938 93.050781 850.835938 90.074219 C 859.550781 87.355469 923.472656 107.160156 928.507812 109.558594 C 931.839844 111.148438 951.824219 107.03125 967.882812 103.726562 C 977.910156 101.660156 986.550781 99.882812 989.027344 99.925781 C 991.640625 99.976562 999.699219 100.613281 1009.03125 101.347656 C 1022.171875 102.382812 1038.523438 103.671875 1044.421875 103.671875 L 1044.421875 104.109375 C 1038.503906 104.109375 1022.144531 102.820312 1008.996094 101.78125 C 999.671875 101.046875 991.621094 100.414062 989.019531 100.363281 C 986.609375 100.316406 977.96875 102.09375 967.972656 104.152344 C 951.007812 107.644531 931.78125 111.605469 928.320312 109.953125 C 922.863281 107.351562 859.15625 87.929688 850.96875 90.492188 C 844.765625 92.433594 773.652344 111.035156 756.511719 111.039062 " fill-opacity="1" fill-rule="nonzero"/><path fill="#ffffff" d="M 758.105469 113.308594 C 756.707031 113.308594 755.570312 113.167969 754.738281 112.875 C 753.824219 112.546875 752.570312 112.089844 751.03125 111.523438 C 741.980469 108.214844 723.152344 101.328125 705.472656 96.566406 C 683.6875 90.703125 670.777344 89.949219 667.097656 94.335938 C 661.109375 101.480469 626.15625 104.230469 624.671875 104.34375 L 624.640625 103.90625 C 625 103.878906 660.890625 101.058594 666.765625 94.054688 C 675.632812 83.476562 732.496094 104.277344 751.179688 111.113281 C 752.71875 111.679688 753.972656 112.136719 754.886719 112.460938 C 764.386719 115.851562 815.722656 97.976562 840.390625 89.390625 C 845.828125 87.496094 849.757812 86.128906 851.765625 85.5 C 862.585938 82.113281 917.578125 106.527344 927.953125 111.472656 C 932.253906 113.519531 949.941406 108.558594 965.554688 104.175781 C 976.28125 101.167969 985.542969 98.566406 989.011719 98.636719 C 992.585938 98.707031 1000.730469 99.585938 1010.160156 100.605469 C 1023.261719 102.023438 1038.113281 103.628906 1045.839844 103.628906 L 1045.839844 104.066406 C 1038.085938 104.066406 1023.226562 102.460938 1010.113281 101.042969 C 1000.695312 100.023438 992.558594 99.144531 989.003906 99.074219 C 985.617188 99.011719 975.921875 101.722656 965.671875 104.597656 C 949.988281 109 932.210938 113.984375 927.765625 111.867188 C 917.414062 106.933594 862.578125 82.566406 851.894531 85.914062 C 849.894531 86.542969 845.765625 87.980469 840.535156 89.800781 C 817.941406 97.667969 773.023438 113.308594 758.105469 113.308594 " fill-opacity="1" fill-rule="nonzero"/><path fill="#ffffff" d="M 759.683594 115.574219 C 758.171875 115.574219 756.882812 115.402344 755.859375 115.039062 C 752.914062 113.988281 748.140625 111.878906 742.097656 109.210938 C 719.515625 99.238281 677.476562 80.675781 668.082031 91.878906 C 660.613281 100.792969 626.652344 104.226562 625.210938 104.371094 L 625.167969 103.9375 C 625.519531 103.902344 660.390625 100.375 667.746094 91.601562 C 677.351562 80.144531 717.992188 98.089844 742.273438 108.8125 C 748.308594 111.476562 753.074219 113.582031 756.007812 114.625 C 766.417969 118.335938 804.96875 101.398438 830.480469 90.1875 C 840.695312 85.699219 848.765625 82.152344 852.691406 80.921875 C 863.84375 77.429688 898.40625 97.078125 916.976562 107.632812 C 921.742188 110.34375 925.511719 112.484375 927.402344 113.386719 C 932.636719 115.878906 949.144531 109.953125 963.710938 104.722656 C 974.269531 100.929688 984.25 97.347656 988.832031 97.347656 C 988.886719 97.347656 988.941406 97.347656 988.996094 97.347656 C 993.527344 97.4375 1001.605469 98.5625 1010.957031 99.863281 C 1023.492188 101.609375 1037.695312 103.589844 1047.257812 103.589844 L 1047.257812 104.023438 C 1037.664062 104.023438 1023.445312 102.042969 1010.898438 100.296875 C 1001.558594 98.996094 993.492188 97.871094 988.984375 97.785156 C 988.933594 97.78125 988.882812 97.78125 988.828125 97.78125 C 984.324219 97.78125 974.378906 101.355469 963.859375 105.132812 C 948.496094 110.648438 932.609375 116.355469 927.214844 113.78125 C 925.308594 112.871094 921.535156 110.726562 916.757812 108.011719 C 898.25 97.492188 863.796875 77.902344 852.820312 81.339844 C 848.917969 82.5625 840.859375 86.101562 830.65625 90.585938 C 807.558594 100.738281 773.796875 115.570312 759.683594 115.574219 " fill-opacity="1" fill-rule="nonzero"/><path fill="#ffffff" d="M 761.359375 117.855469 C 759.699219 117.855469 758.230469 117.648438 756.980469 117.203125 C 752.417969 115.574219 745.207031 111.753906 736.859375 107.332031 C 712.660156 94.515625 679.519531 76.957031 669.066406 89.425781 C 660.113281 100.101562 626.09375 104.355469 625.75 104.398438 L 625.699219 103.964844 C 626.039062 103.921875 659.890625 99.691406 668.730469 89.144531 C 679.410156 76.40625 712.734375 94.058594 737.066406 106.945312 C 745.398438 111.359375 752.597656 115.175781 757.128906 116.789062 C 768.757812 120.9375 800.132812 103.984375 825.339844 90.363281 C 837.535156 83.773438 848.070312 78.082031 853.617188 76.34375 C 865.785156 72.539062 892.976562 91.898438 910.96875 104.710938 C 918.132812 109.8125 923.792969 113.84375 926.851562 115.300781 C 933.003906 118.230469 947.839844 111.671875 962.1875 105.328125 C 972.972656 100.5625 983.167969 96.054688 988.78125 96.054688 C 988.847656 96.054688 988.914062 96.054688 988.980469 96.058594 C 994.464844 96.164062 1002.40625 97.535156 1011.597656 99.117188 C 1023.632812 101.195312 1037.273438 103.546875 1048.671875 103.546875 L 1048.671875 103.984375 C 1037.238281 103.984375 1023.578125 101.628906 1011.523438 99.550781 C 1002.347656 97.96875 994.425781 96.601562 988.96875 96.492188 C 988.90625 96.492188 988.84375 96.492188 988.777344 96.492188 C 983.261719 96.492188 973.109375 100.980469 962.367188 105.726562 C 947.925781 112.113281 932.992188 118.710938 926.664062 115.695312 C 923.570312 114.21875 917.898438 110.179688 910.71875 105.066406 C 892.792969 92.304688 865.710938 73.019531 853.75 76.761719 C 848.242188 78.484375 837.722656 84.167969 825.546875 90.75 C 802.9375 102.964844 775.386719 117.851562 761.359375 117.855469 " fill-opacity="1" fill-rule="nonzero"/><path fill="#ffffff" d="M 762.992188 120.132812 C 761.203125 120.132812 759.5625 119.886719 758.101562 119.363281 C 751.980469 117.183594 743.3125 111.761719 733.277344 105.488281 C 710.257812 91.09375 681.609375 73.183594 670.050781 86.972656 C 659.617188 99.414062 626.625 104.375 626.292969 104.425781 L 626.226562 103.992188 C 626.558594 103.945312 659.386719 99.007812 669.714844 86.691406 C 681.519531 72.609375 710.347656 90.632812 733.507812 105.117188 C 743.523438 111.378906 752.175781 116.789062 758.246094 118.953125 C 771.183594 123.566406 799.507812 105.152344 822.269531 90.359375 C 835.78125 81.574219 847.453125 73.988281 854.542969 71.769531 C 867.953125 67.574219 890.765625 87.625 907.425781 102.269531 C 915.363281 109.246094 922.21875 115.269531 926.300781 117.214844 C 933.347656 120.574219 947.351562 113.15625 960.894531 105.984375 C 971.78125 100.214844 982.074219 94.765625 988.730469 94.765625 C 988.808594 94.765625 988.882812 94.765625 988.964844 94.765625 C 995.40625 94.894531 1003.167969 96.507812 1012.15625 98.375 C 1023.734375 100.777344 1036.855469 103.503906 1050.089844 103.503906 L 1050.089844 103.941406 C 1036.808594 103.941406 1023.664062 101.210938 1012.070312 98.800781 C 1003.101562 96.9375 995.355469 95.328125 988.953125 95.203125 C 982.445312 95.070312 972.0625 100.5625 961.101562 106.367188 C 949.828125 112.339844 938.238281 118.476562 930.464844 118.476562 C 928.832031 118.476562 927.367188 118.207031 926.113281 117.609375 C 921.976562 115.636719 915.101562 109.59375 907.136719 102.597656 C 890.554688 88.023438 867.84375 68.0625 854.675781 72.1875 C 847.640625 74.386719 835.992188 81.957031 822.507812 90.722656 C 801.152344 104.605469 777.269531 120.128906 762.992188 120.132812 " fill-opacity="1" fill-rule="nonzero"/><path fill="#ffffff" d="M 764.523438 122.386719 C 762.632812 122.386719 760.859375 122.113281 759.21875 121.527344 C 751.550781 118.792969 741.414062 111.414062 730.683594 103.601562 C 708.660156 87.570312 683.703125 69.402344 671.03125 84.515625 C 659.121094 98.726562 627.152344 104.394531 626.832031 104.453125 L 626.757812 104.019531 C 627.078125 103.964844 658.886719 98.324219 670.695312 84.234375 C 683.632812 68.808594 708.765625 87.105469 730.9375 103.25 C 741.644531 111.042969 751.757812 118.402344 759.367188 121.117188 C 773.640625 126.203125 798.453125 107.117188 820.347656 90.277344 C 833.984375 79.789062 846.863281 69.886719 855.46875 67.191406 C 870.1875 62.585938 889.550781 83.335938 905.105469 100.011719 C 913.472656 108.976562 920.699219 116.722656 925.746094 119.128906 C 933.6875 122.914062 946.945312 114.65625 959.769531 106.671875 C 970.195312 100.183594 980.96875 93.476562 988.691406 93.476562 C 988.773438 93.476562 988.859375 93.476562 988.945312 93.476562 C 996.34375 93.621094 1004.269531 95.566406 1012.664062 97.628906 C 1023.804688 100.363281 1036.433594 103.464844 1051.507812 103.464844 L 1051.507812 103.898438 C 1036.378906 103.898438 1023.726562 100.792969 1012.558594 98.054688 C 1003.828125 95.910156 996.285156 94.058594 988.9375 93.914062 C 981.316406 93.757812 970.484375 100.515625 960 107.042969 C 949.335938 113.679688 938.371094 120.507812 930.28125 120.507812 C 928.570312 120.507812 926.984375 120.203125 925.558594 119.523438 C 920.433594 117.078125 913.183594 109.308594 904.785156 100.308594 C 889.3125 83.726562 870.054688 63.085938 855.601562 67.609375 C 847.066406 70.28125 834.21875 80.160156 820.617188 90.621094 C 801.121094 105.617188 779.316406 122.386719 764.523438 122.386719 " fill-opacity="1" fill-rule="nonzero"/><path fill="#ffffff" d="M 766.222656 124.675781 C 764.183594 124.675781 762.21875 124.363281 760.339844 123.691406 C 751.105469 120.398438 740.25 111.296875 728.757812 101.664062 C 712.886719 88.355469 696.472656 74.605469 683.445312 75.742188 C 678.992188 76.132812 675.253906 78.199219 672.015625 82.0625 C 658.621094 98.039062 627.683594 104.414062 627.371094 104.476562 L 627.285156 104.050781 C 627.59375 103.988281 658.386719 97.640625 671.679688 81.78125 C 674.949219 77.878906 678.894531 75.703125 683.40625 75.304688 C 696.625 74.152344 713.101562 87.964844 729.039062 101.328125 C 740.503906 110.9375 751.328125 120.015625 760.488281 123.28125 C 776.097656 128.847656 797.984375 109.179688 819.152344 90.160156 C 833.105469 77.621094 846.285156 65.78125 856.394531 62.613281 C 872.460938 57.589844 888.957031 78.976562 903.511719 97.84375 C 911.578125 108.304688 919.195312 118.183594 925.195312 121.042969 C 934.011719 125.242188 946.597656 116.167969 958.769531 107.390625 C 969.136719 99.914062 979.851562 92.183594 988.640625 92.183594 C 988.734375 92.183594 988.832031 92.1875 988.929688 92.1875 C 997.28125 92.351562 1004.984375 94.550781 1013.136719 96.882812 C 1023.859375 99.949219 1036.011719 103.421875 1052.921875 103.421875 L 1052.921875 103.859375 C 1035.949219 103.859375 1023.765625 100.375 1013.015625 97.304688 C 1004.890625 94.980469 997.214844 92.785156 988.921875 92.625 C 980.21875 92.429688 969.449219 100.226562 959.027344 107.742188 C 948.511719 115.328125 938.46875 122.570312 930.207031 122.570312 C 928.382812 122.570312 926.644531 122.21875 925.007812 121.4375 C 918.914062 118.53125 911.613281 109.070312 903.164062 98.113281 C 888.699219 79.355469 872.296875 58.097656 856.527344 63.03125 C 846.507812 66.167969 833.363281 77.980469 819.445312 90.484375 C 800.703125 107.328125 781.398438 124.671875 766.222656 124.675781 " fill-opacity="1" fill-rule="nonzero"/><path fill="#ffffff" d="M 767.78125 126.9375 C 765.632812 126.9375 763.523438 126.59375 761.460938 125.855469 C 750.648438 122 738.789062 110.648438 727.324219 99.667969 C 713.035156 85.988281 698.273438 71.84375 685.710938 72.527344 C 680.933594 72.789062 676.773438 75.101562 673 79.605469 C 658.125 97.347656 628.214844 104.433594 627.914062 104.503906 L 627.8125 104.078125 C 628.113281 104.011719 657.886719 96.953125 672.664062 79.324219 C 676.519531 74.726562 680.78125 72.359375 685.6875 72.089844 C 698.421875 71.386719 713.269531 85.605469 727.625 99.351562 C 739.058594 110.300781 750.882812 121.621094 761.605469 125.445312 C 778.578125 131.496094 798.84375 110.414062 818.449219 90.023438 C 832.472656 75.445312 845.71875 61.671875 857.324219 58.039062 C 874.753906 52.585938 889.433594 75.507812 902.386719 95.730469 C 910.265625 108.03125 917.710938 119.652344 924.644531 122.957031 C 934.332031 127.574219 945.765625 118.128906 957.875 108.125 C 968.238281 99.5625 978.972656 90.707031 988.910156 90.898438 C 998.21875 91.078125 1005.683594 93.539062 1013.585938 96.136719 C 1023.898438 99.53125 1035.589844 103.378906 1054.339844 103.378906 L 1054.339844 103.816406 C 1035.519531 103.816406 1023.792969 99.957031 1013.449219 96.554688 C 1005.578125 93.960938 998.144531 91.515625 988.902344 91.335938 C 988.800781 91.332031 988.695312 91.332031 988.589844 91.332031 C 978.886719 91.332031 968.347656 100.039062 958.152344 108.460938 C 945.9375 118.554688 934.394531 128.089844 924.457031 123.351562 C 917.40625 119.992188 909.933594 108.320312 902.019531 95.964844 C 889.148438 75.875 874.566406 53.097656 857.453125 58.457031 C 845.957031 62.054688 832.75 75.789062 818.765625 90.328125 C 801.425781 108.359375 783.5625 126.933594 767.78125 126.9375 " fill-opacity="1" fill-rule="nonzero"/><path fill="#ffffff" d="M 769.34375 129.195312 C 767.082031 129.195312 764.832031 128.820312 762.578125 128.019531 C 750.171875 123.59375 738.011719 110.390625 726.253906 97.621094 C 712.730469 82.929688 699.9375 69.058594 687.878906 69.332031 C 682.84375 69.449219 678.296875 72.007812 673.980469 77.152344 C 657.628906 96.660156 628.742188 104.453125 628.453125 104.53125 L 628.34375 104.109375 C 628.628906 104.03125 657.382812 96.269531 673.648438 76.871094 C 678.046875 71.625 682.699219 69.015625 687.871094 68.894531 C 687.992188 68.894531 688.117188 68.890625 688.242188 68.890625 C 700.398438 68.890625 713.117188 82.707031 726.578125 97.324219 C 738.300781 110.054688 750.421875 123.21875 762.726562 127.609375 C 781.042969 134.136719 799.882812 111.640625 818.097656 89.878906 C 832.011719 73.257812 845.152344 57.5625 858.25 53.460938 C 877.058594 47.574219 890.09375 72.054688 901.59375 93.648438 C 909.121094 107.777344 916.226562 121.121094 924.09375 124.871094 C 934.652344 129.902344 945.53125 119.691406 957.054688 108.882812 C 967.15625 99.402344 977.601562 89.605469 988.539062 89.605469 C 988.660156 89.605469 988.777344 89.605469 988.894531 89.609375 C 999.15625 89.808594 1006.378906 92.523438 1014.023438 95.394531 C 1023.933594 99.117188 1035.167969 103.339844 1055.757812 103.339844 L 1055.757812 103.773438 C 1035.085938 103.773438 1023.816406 99.539062 1013.867188 95.804688 C 1006.257812 92.945312 999.074219 90.246094 988.886719 90.046875 C 988.769531 90.042969 988.65625 90.042969 988.539062 90.042969 C 977.773438 90.042969 967.394531 99.777344 957.355469 109.199219 C 945.71875 120.117188 934.734375 130.425781 923.90625 125.265625 C 915.910156 121.453125 908.769531 108.046875 901.207031 93.851562 C 889.785156 72.40625 876.84375 48.101562 858.378906 53.878906 C 845.40625 57.9375 831.695312 74.320312 818.433594 90.160156 C 802.339844 109.386719 785.757812 129.191406 769.34375 129.195312 " fill-opacity="1" fill-rule="nonzero"/><path fill="#ffffff" d="M 770.90625 131.457031 C 768.535156 131.457031 766.136719 131.050781 763.699219 130.183594 C 749.679688 125.183594 737.378906 110.105469 725.480469 95.523438 C 713.191406 80.460938 701.585938 66.234375 689.960938 66.15625 C 689.925781 66.15625 689.894531 66.15625 689.863281 66.15625 C 684.65625 66.15625 679.785156 68.949219 674.964844 74.699219 C 657.132812 95.96875 629.273438 104.472656 628.996094 104.554688 L 628.871094 104.136719 C 629.148438 104.054688 656.882812 95.585938 674.628906 74.417969 C 679.535156 68.566406 684.519531 65.71875 689.863281 65.71875 C 689.894531 65.71875 689.929688 65.71875 689.960938 65.71875 C 701.796875 65.796875 713.464844 80.101562 725.820312 95.246094 C 737.679688 109.78125 749.941406 124.8125 763.847656 129.769531 C 783.523438 136.789062 801.054688 112.867188 818.007812 89.726562 C 831.078125 71.894531 844.589844 53.449219 859.175781 48.886719 C 868.222656 46.054688 876.277344 49.378906 883.800781 59.054688 C 890.414062 67.554688 895.8125 79.769531 901.039062 91.582031 C 908.089844 107.53125 914.75 122.59375 923.539062 126.785156 C 934.964844 132.226562 945.328125 121.261719 956.300781 109.652344 C 966.324219 99.046875 976.707031 88.097656 988.878906 88.320312 C 1000.09375 88.539062 1007.0625 91.507812 1014.445312 94.648438 C 1023.960938 98.703125 1034.746094 103.296875 1057.171875 103.296875 L 1057.171875 103.734375 C 1034.65625 103.734375 1023.828125 99.121094 1014.273438 95.050781 C 1006.933594 91.925781 1000 88.972656 988.871094 88.753906 C 988.742188 88.753906 988.613281 88.75 988.488281 88.75 C 976.652344 88.75 966.472656 99.527344 956.621094 109.949219 C 945.53125 121.679688 935.058594 132.757812 923.351562 127.179688 C 914.414062 122.917969 907.722656 107.785156 900.636719 91.761719 C 890.058594 67.835938 879.121094 43.101562 859.308594 49.300781 C 844.859375 53.824219 831.390625 72.207031 818.363281 89.984375 C 803.394531 110.414062 787.972656 131.453125 770.90625 131.457031 " fill-opacity="1" fill-rule="nonzero"/><path fill="#ffffff" d="M 772.523438 133.726562 C 769.964844 133.726562 767.398438 133.265625 764.820312 132.347656 C 749.171875 126.765625 736.300781 109.03125 724.945312 93.382812 C 713.746094 77.953125 703.171875 63.382812 691.957031 62.992188 C 686.582031 62.8125 681.328125 65.828125 675.949219 72.242188 C 656.632812 95.28125 629.804688 104.492188 629.539062 104.582031 L 629.398438 104.167969 C 629.664062 104.078125 656.378906 94.902344 675.613281 71.960938 C 681.085938 65.4375 686.445312 62.363281 691.972656 62.554688 C 703.398438 62.953125 714.035156 77.609375 725.296875 93.125 C 736.617188 108.722656 749.445312 126.398438 764.96875 131.933594 C 786.011719 139.4375 801.605469 115.214844 818.117188 89.574219 C 830.855469 69.792969 844.027344 49.339844 860.101562 44.308594 C 881.679688 37.554688 891.328125 63.980469 900.660156 89.53125 C 907.148438 107.292969 913.273438 124.070312 922.988281 128.699219 C 935.269531 134.550781 945.144531 122.835938 955.597656 110.429688 C 965.40625 98.796875 975.539062 86.777344 988.863281 87.027344 C 1001.03125 87.265625 1007.746094 90.492188 1014.855469 93.90625 C 1023.980469 98.289062 1034.324219 103.253906 1058.589844 103.253906 L 1058.589844 103.691406 C 1034.222656 103.691406 1023.832031 98.703125 1014.667969 94.300781 C 1007.601562 90.90625 1000.929688 87.703125 988.851562 87.464844 C 975.765625 87.191406 965.675781 99.15625 955.933594 110.710938 C 947.316406 120.9375 939.089844 130.699219 929.519531 130.699219 C 927.355469 130.699219 925.121094 130.199219 922.800781 129.09375 C 912.925781 124.386719 906.769531 107.527344 900.25 89.683594 C 890.988281 64.320312 881.40625 38.097656 860.234375 44.726562 C 844.3125 49.707031 831.183594 70.09375 818.484375 89.808594 C 810.519531 102.179688 802.285156 114.96875 793.597656 123.382812 C 786.457031 130.300781 779.503906 133.726562 772.523438 133.726562 " fill-opacity="1" fill-rule="nonzero"/><g clip-path="url(#85fdd810ca)"><path fill="#ffffff" d="M 774.265625 136.027344 C 771.609375 136.027344 768.84375 135.542969 765.941406 134.507812 C 748.648438 128.34375 735.871094 108.609375 724.597656 91.203125 C 713.929688 74.726562 704.71875 60.5 693.890625 59.832031 C 688.363281 59.496094 682.832031 62.75 676.933594 69.789062 C 656.136719 94.589844 630.335938 104.511719 630.078125 104.605469 L 629.925781 104.199219 C 630.183594 104.101562 655.878906 94.21875 676.597656 69.507812 C 682.59375 62.355469 688.265625 59.050781 693.917969 59.398438 C 704.964844 60.078125 714.234375 74.390625 724.964844 90.964844 C 736.203125 108.316406 748.9375 127.980469 766.085938 134.097656 C 788.484375 142.085938 803.007812 116.503906 818.382812 89.417969 C 830.714844 67.691406 843.46875 45.226562 861.027344 39.730469 C 866.746094 37.941406 871.722656 38.238281 876.246094 40.636719 C 888.332031 47.050781 894.480469 67.609375 900.425781 87.492188 C 906.273438 107.058594 911.800781 125.542969 922.4375 130.613281 C 935.578125 136.875 944.984375 124.414062 954.945312 111.222656 C 964.40625 98.6875 974.1875 85.734375 988.386719 85.734375 C 988.539062 85.734375 988.691406 85.734375 988.847656 85.738281 C 1001.972656 85.996094 1008.425781 89.476562 1015.261719 93.164062 C 1024 97.875 1033.902344 103.214844 1060.007812 103.214844 L 1060.007812 103.648438 C 1033.789062 103.648438 1023.835938 98.28125 1015.054688 93.546875 C 1008.265625 89.886719 1001.855469 86.429688 988.835938 86.175781 C 974.597656 85.90625 964.789062 98.90625 955.292969 111.484375 C 945.21875 124.824219 935.703125 137.417969 922.25 131.007812 C 911.4375 125.855469 905.882812 107.28125 900.003906 87.613281 C 894.085938 67.820312 887.964844 47.351562 876.039062 41.023438 C 871.628906 38.683594 866.757812 38.394531 861.160156 40.148438 C 843.761719 45.59375 831.054688 67.980469 818.761719 89.632812 C 805.269531 113.402344 792.425781 136.027344 774.265625 136.027344 " fill-opacity="1" fill-rule="nonzero"/></g><g fill="#ffffff" fill-opacity="1"><g transform="translate(75.569112, 280.673134)"><g><path d="M 48 1.28125 C 39.789062 1.28125 32.5625 -0.476562 26.3125 -4 C 20.070312 -7.519531 15.242188 -12.503906 11.828125 -18.953125 C 8.421875 -25.410156 6.71875 -32.851562 6.71875 -41.28125 L 6.71875 -70.71875 C 6.71875 -79.144531 8.453125 -86.582031 11.921875 -93.03125 C 15.390625 -99.488281 20.296875 -104.476562 26.640625 -108 C 32.984375 -111.519531 40.316406 -113.28125 48.640625 -113.28125 L 65.59375 -113.28125 C 73.59375 -113.28125 80.632812 -111.570312 86.71875 -108.15625 C 92.800781 -104.75 97.519531 -99.976562 100.875 -93.84375 C 104.238281 -87.707031 105.921875 -80.585938 105.921875 -72.484375 L 84.15625 -72.484375 C 84.15625 -78.878906 82.445312 -84.023438 79.03125 -87.921875 C 75.625 -91.816406 71.144531 -93.765625 65.59375 -93.765625 L 48.640625 -93.765625 C 42.671875 -93.765625 37.867188 -91.550781 34.234375 -87.125 C 30.609375 -82.695312 28.796875 -76.910156 28.796875 -69.765625 L 28.796875 -42.234375 C 28.796875 -35.085938 30.554688 -29.300781 34.078125 -24.875 C 37.597656 -20.445312 42.238281 -18.234375 48 -18.234375 L 65.28125 -18.234375 C 70.9375 -18.234375 75.550781 -20.421875 79.125 -24.796875 C 82.695312 -29.171875 84.484375 -34.929688 84.484375 -42.078125 L 106.234375 -42.078125 C 106.234375 -33.441406 104.523438 -25.84375 101.109375 -19.28125 C 97.703125 -12.71875 92.90625 -7.648438 86.71875 -4.078125 C 80.53125 -0.503906 73.382812 1.28125 65.28125 1.28125 Z M 48 1.28125 "/></g></g></g><g fill="#ffffff" fill-opacity="1"><g transform="translate(185.646414, 280.673134)"><g><path d="M 36.3125 1.28125 C 27.894531 1.28125 21.125 -1.570312 16 -7.28125 C 10.875 -12.988281 8.3125 -20.484375 8.3125 -29.765625 L 8.3125 -79.84375 L 30.078125 -79.84375 L 30.078125 -29.4375 C 30.078125 -25.914062 30.957031 -23.0625 32.71875 -20.875 C 34.476562 -18.6875 36.800781 -17.59375 39.6875 -17.59375 L 48.953125 -17.59375 C 52.472656 -17.59375 55.671875 -19.0625 58.546875 -22 C 61.429688 -24.9375 63.460938 -28.800781 64.640625 -33.59375 L 64.640625 -79.84375 L 86.40625 -79.84375 L 86.40625 0 L 66.234375 0 L 66.234375 -10.234375 C 63.785156 -6.828125 60.773438 -4.054688 57.203125 -1.921875 C 53.628906 0.210938 50.1875 1.28125 46.875 1.28125 Z M 36.3125 1.28125 "/></g></g></g><g fill="#ffffff" fill-opacity="1"><g transform="translate(281.324073, 280.673134)"><g><path d="M 37.59375 1.28125 C 27.894531 1.28125 20.109375 -1.273438 14.234375 -6.390625 C 8.367188 -11.515625 5.4375 -18.238281 5.4375 -26.5625 L 26.875 -26.5625 C 26.875 -23.675781 27.859375 -21.351562 29.828125 -19.59375 C 31.804688 -17.832031 34.394531 -16.953125 37.59375 -16.953125 L 52 -16.953125 C 58.394531 -16.953125 61.59375 -18.710938 61.59375 -22.234375 L 61.59375 -24.953125 C 61.59375 -26.023438 61.0625 -27.015625 60 -27.921875 C 58.9375 -28.828125 57.5 -29.441406 55.6875 -29.765625 L 28 -34.5625 C 21.488281 -35.625 16.335938 -37.941406 12.546875 -41.515625 C 8.765625 -45.085938 6.875 -49.273438 6.875 -54.078125 L 6.875 -59.359375 C 6.875 -66.179688 9.675781 -71.515625 15.28125 -75.359375 C 20.882812 -79.203125 28.695312 -81.125 38.71875 -81.125 L 51.203125 -81.125 C 60.160156 -81.125 67.382812 -78.75 72.875 -74 C 78.375 -69.25 81.125 -62.984375 81.125 -55.203125 L 59.6875 -55.203125 C 59.6875 -57.546875 58.910156 -59.410156 57.359375 -60.796875 C 55.816406 -62.179688 53.765625 -62.875 51.203125 -62.875 L 39.046875 -62.875 C 32.109375 -62.875 28.640625 -61.273438 28.640625 -58.078125 L 28.640625 -55.515625 C 28.640625 -54.347656 29.09375 -53.363281 30 -52.5625 C 30.90625 -51.757812 32.210938 -51.195312 33.921875 -50.875 L 63.046875 -45.59375 C 69.117188 -44.53125 74.019531 -42.265625 77.75 -38.796875 C 81.488281 -35.328125 83.359375 -31.410156 83.359375 -27.046875 L 83.359375 -21.28125 C 83.359375 -14.34375 80.503906 -8.847656 74.796875 -4.796875 C 69.085938 -0.742188 61.488281 1.28125 52 1.28125 Z M 37.59375 1.28125 "/></g></g></g><g fill="#ffffff" fill-opacity="1"><g transform="translate(369.161912, 280.673134)"><g><path d="M 44.15625 0 C 34.769531 0 27.890625 -2.128906 23.515625 -6.390625 C 19.140625 -10.660156 16.953125 -17.273438 16.953125 -26.234375 L 16.953125 -61.28125 L 2.875 -61.28125 L 2.875 -79.84375 L 17.59375 -79.84375 L 17.59375 -104 L 38.71875 -104 L 38.71875 -79.84375 L 59.515625 -79.84375 L 59.515625 -61.28125 L 38.71875 -61.28125 L 38.71875 -27.203125 C 38.71875 -24.210938 39.273438 -22.023438 40.390625 -20.640625 C 41.515625 -19.253906 43.304688 -18.5625 45.765625 -18.5625 L 59.515625 -18.5625 L 59.515625 0 Z M 44.15625 0 "/></g></g></g><g fill="#ffffff" fill-opacity="1"><g transform="translate(434.760312, 280.673134)"><g><path d="M 40.15625 1.28125 C 33.4375 1.28125 27.488281 -0.0234375 22.3125 -2.640625 C 17.144531 -5.253906 13.144531 -8.957031 10.3125 -13.75 C 7.488281 -18.550781 6.078125 -24.101562 6.078125 -30.40625 L 6.078125 -49.125 C 6.078125 -55.414062 7.515625 -60.988281 10.390625 -65.84375 C 13.273438 -70.695312 17.300781 -74.457031 22.46875 -77.125 C 27.644531 -79.789062 33.59375 -81.125 40.3125 -81.125 L 54.71875 -81.125 C 61.4375 -81.125 67.378906 -79.789062 72.546875 -77.125 C 77.722656 -74.457031 81.75 -70.695312 84.625 -65.84375 C 87.507812 -60.988281 88.953125 -55.414062 88.953125 -49.125 L 88.953125 -30.40625 C 88.953125 -24.101562 87.507812 -18.550781 84.625 -13.75 C 81.75 -8.957031 77.722656 -5.253906 72.546875 -2.640625 C 67.378906 -0.0234375 61.382812 1.28125 54.5625 1.28125 Z M 54.234375 -17.4375 C 58.179688 -17.4375 61.328125 -18.796875 63.671875 -21.515625 C 66.023438 -24.234375 67.203125 -27.78125 67.203125 -32.15625 L 67.203125 -47.6875 C 67.203125 -52.050781 66.023438 -55.59375 63.671875 -58.3125 C 61.328125 -61.039062 58.238281 -62.40625 54.40625 -62.40625 L 40.640625 -62.40625 C 36.796875 -62.40625 33.703125 -61.039062 31.359375 -58.3125 C 29.015625 -55.59375 27.84375 -52.050781 27.84375 -47.6875 L 27.84375 -32.15625 C 27.84375 -27.78125 29.015625 -24.234375 31.359375 -21.515625 C 33.703125 -18.796875 36.742188 -17.4375 40.484375 -17.4375 Z M 54.234375 -17.4375 "/></g></g></g><g fill="#ffffff" fill-opacity="1"><g transform="translate(529.797995, 280.673134)"><g><path d="M 100.484375 -81.125 C 108.585938 -81.125 115.09375 -78.484375 120 -73.203125 C 124.90625 -67.921875 127.359375 -61.015625 127.359375 -52.484375 L 127.359375 0 L 105.59375 0 L 105.59375 -52.484375 C 105.59375 -55.460938 104.898438 -57.832031 103.515625 -59.59375 C 102.128906 -61.351562 100.316406 -62.234375 98.078125 -62.234375 L 91.203125 -62.234375 C 88.210938 -62.234375 85.597656 -61.140625 83.359375 -58.953125 C 81.117188 -56.773438 79.734375 -53.867188 79.203125 -50.234375 L 79.203125 0 L 57.4375 0 L 57.4375 -52.3125 C 57.4375 -55.300781 56.742188 -57.703125 55.359375 -59.515625 C 53.972656 -61.328125 52.160156 -62.234375 49.921875 -62.234375 L 43.6875 -62.234375 C 40.59375 -62.234375 37.867188 -60.847656 35.515625 -58.078125 C 33.171875 -55.304688 31.679688 -51.679688 31.046875 -47.203125 L 31.046875 0 L 9.28125 0 L 9.28125 -79.84375 L 29.4375 -79.84375 L 29.4375 -70.5625 C 31.351562 -73.757812 33.832031 -76.316406 36.875 -78.234375 C 39.914062 -80.160156 42.984375 -81.125 46.078125 -81.125 L 55.046875 -81.125 C 58.878906 -81.125 62.367188 -80.109375 65.515625 -78.078125 C 68.660156 -76.054688 71.140625 -73.226562 72.953125 -69.59375 C 75.304688 -73.226562 78.109375 -76.054688 81.359375 -78.078125 C 84.609375 -80.109375 88.050781 -81.125 91.6875 -81.125 Z M 100.484375 -81.125 "/></g></g></g><g fill="#ffffff" fill-opacity="1"><g transform="translate(665.474651, 280.673134)"><g><path d="M 48 1.28125 C 39.789062 1.28125 32.5625 -0.476562 26.3125 -4 C 20.070312 -7.519531 15.242188 -12.503906 11.828125 -18.953125 C 8.421875 -25.410156 6.71875 -32.851562 6.71875 -41.28125 L 6.71875 -70.71875 C 6.71875 -79.144531 8.453125 -86.582031 11.921875 -93.03125 C 15.390625 -99.488281 20.296875 -104.476562 26.640625 -108 C 32.984375 -111.519531 40.316406 -113.28125 48.640625 -113.28125 L 65.59375 -113.28125 C 73.59375 -113.28125 80.632812 -111.570312 86.71875 -108.15625 C 92.800781 -104.75 97.519531 -99.976562 100.875 -93.84375 C 104.238281 -87.707031 105.921875 -80.585938 105.921875 -72.484375 L 84.15625 -72.484375 C 84.15625 -78.878906 82.445312 -84.023438 79.03125 -87.921875 C 75.625 -91.816406 71.144531 -93.765625 65.59375 -93.765625 L 48.640625 -93.765625 C 42.671875 -93.765625 37.867188 -91.550781 34.234375 -87.125 C 30.609375 -82.695312 28.796875 -76.910156 28.796875 -69.765625 L 28.796875 -42.234375 C 28.796875 -35.085938 30.554688 -29.300781 34.078125 -24.875 C 37.597656 -20.445312 42.238281 -18.234375 48 -18.234375 L 65.28125 -18.234375 C 70.9375 -18.234375 75.550781 -20.421875 79.125 -24.796875 C 82.695312 -29.171875 84.484375 -34.929688 84.484375 -42.078125 L 106.234375 -42.078125 C 106.234375 -33.441406 104.523438 -25.84375 101.109375 -19.28125 C 97.703125 -12.71875 92.90625 -7.648438 86.71875 -4.078125 C 80.53125 -0.503906 73.382812 1.28125 65.28125 1.28125 Z M 48 1.28125 "/></g></g></g><g fill="#ffffff" fill-opacity="1"><g transform="translate(775.551975, 280.673134)"><g><path d="M 9.28125 -112 L 31.046875 -112 L 31.046875 -71.84375 C 33.390625 -74.613281 36.289062 -76.851562 39.75 -78.5625 C 43.21875 -80.269531 46.554688 -81.125 49.765625 -81.125 L 59.6875 -81.125 C 68.21875 -81.125 75.066406 -78.457031 80.234375 -73.125 C 85.410156 -67.789062 88 -60.75 88 -52 L 88 0 L 66.234375 0 L 66.234375 -51.203125 C 66.234375 -54.503906 65.351562 -57.164062 63.59375 -59.1875 C 61.832031 -61.21875 59.566406 -62.234375 56.796875 -62.234375 L 46.875 -62.234375 C 43.144531 -62.234375 39.8125 -60.875 36.875 -58.15625 C 33.945312 -55.4375 32.003906 -51.890625 31.046875 -47.515625 L 31.046875 0 L 9.28125 0 Z M 9.28125 -112 "/></g></g></g><g fill="#ffffff" fill-opacity="1"><g transform="translate(871.869657, 280.673134)"><g><path d="M 34.5625 1.28125 C 26.238281 1.28125 19.515625 -0.796875 14.390625 -4.953125 C 9.273438 -9.117188 6.71875 -14.613281 6.71875 -21.4375 L 6.71875 -27.359375 C 6.71875 -34.078125 9.382812 -39.488281 14.71875 -43.59375 C 20.050781 -47.707031 27.09375 -49.765625 35.84375 -49.765625 L 45.59375 -49.765625 C 48.375 -49.765625 51.363281 -49.390625 54.5625 -48.640625 C 57.757812 -47.890625 60.691406 -46.875 63.359375 -45.59375 L 63.359375 -53.921875 C 63.359375 -56.585938 62.476562 -58.742188 60.71875 -60.390625 C 58.957031 -62.046875 56.640625 -62.875 53.765625 -62.875 L 40 -62.875 C 37.007812 -62.875 34.609375 -62.179688 32.796875 -60.796875 C 30.984375 -59.410156 30.078125 -57.546875 30.078125 -55.203125 L 8.953125 -55.203125 C 8.953125 -62.984375 11.804688 -69.25 17.515625 -74 C 23.222656 -78.75 30.71875 -81.125 40 -81.125 L 53.765625 -81.125 C 63.148438 -81.125 70.722656 -78.640625 76.484375 -73.671875 C 82.242188 -68.710938 85.125 -62.128906 85.125 -53.921875 L 85.125 0 L 64.953125 0 L 64.953125 -9.59375 C 62.398438 -6.289062 59.253906 -3.648438 55.515625 -1.671875 C 51.785156 0.296875 48.109375 1.28125 44.484375 1.28125 Z M 46.078125 -15.359375 C 50.023438 -15.359375 53.546875 -16.367188 56.640625 -18.390625 C 59.734375 -20.421875 61.972656 -23.144531 63.359375 -26.5625 L 63.359375 -29.28125 C 61.648438 -30.5625 59.273438 -31.570312 56.234375 -32.3125 C 53.203125 -33.0625 49.976562 -33.4375 46.5625 -33.4375 L 36.484375 -33.4375 C 33.921875 -33.4375 31.835938 -32.796875 30.234375 -31.515625 C 28.640625 -30.234375 27.84375 -28.53125 27.84375 -26.40625 L 27.84375 -22.234375 C 27.84375 -20.210938 28.722656 -18.5625 30.484375 -17.28125 C 32.242188 -16 34.5625 -15.359375 37.4375 -15.359375 Z M 46.078125 -15.359375 "/></g></g></g><g fill="#ffffff" fill-opacity="1"><g transform="translate(965.307364, 280.673134)"><g><path d="M 9.28125 -79.84375 L 29.4375 -79.84375 L 29.4375 -69.59375 C 31.46875 -72.6875 34.375 -75.21875 38.15625 -77.1875 C 41.945312 -79.164062 45.921875 -80.15625 50.078125 -80.15625 L 60.953125 -80.15625 L 60.953125 -61.28125 L 50.078125 -61.28125 C 44.421875 -61.28125 39.832031 -59.570312 36.3125 -56.15625 C 32.800781 -52.75 31.046875 -48.378906 31.046875 -43.046875 L 31.046875 0 L 9.28125 0 Z M 9.28125 -79.84375 "/></g></g></g><g fill="#7ed957" fill-opacity="1"><g transform="translate(987.46044, 205.880337)"><g/></g></g><g fill="#7ed957" fill-opacity="1"><g transform="translate(1033.538562, 205.880337)"><g><path d="M 19.203125 1.59375 C 15.253906 1.59375 12.078125 0.394531 9.671875 -2 C 7.273438 -4.394531 6.078125 -7.566406 6.078125 -11.515625 C 6.078125 -15.460938 7.273438 -18.632812 9.671875 -21.03125 C 12.078125 -23.4375 15.253906 -24.640625 19.203125 -24.640625 C 23.148438 -24.640625 26.320312 -23.4375 28.71875 -21.03125 C 31.113281 -18.632812 32.3125 -15.460938 32.3125 -11.515625 C 32.3125 -7.566406 31.113281 -4.394531 28.71875 -2 C 26.320312 0.394531 23.148438 1.59375 19.203125 1.59375 Z M 19.203125 1.59375 "/></g></g></g></svg>
