<svg xmlns="http://www.w3.org/2000/svg" xmlns:xlink="http://www.w3.org/1999/xlink" width="250" zoomAndPan="magnify" viewBox="0 0 187.5 187.499992" height="250" preserveAspectRatio="xMidYMid meet" version="1.0"><defs><g/><clipPath id="47fd485379"><path d="M 0 0 L 187 0 L 187 187 L 0 187 Z M 0 0 " clip-rule="nonzero"/></clipPath><clipPath id="a6c37d8d40"><path d="M 0 0 L 187 0 L 187 187 L 0 187 Z M 0 0 " clip-rule="nonzero"/></clipPath><clipPath id="883f6afda4"><path d="M 17.25 0 L 170.25 0 C 179.777344 0 187.5 7.722656 187.5 17.25 L 187.5 170.25 C 187.5 179.777344 179.777344 187.5 170.25 187.5 L 17.25 187.5 C 7.722656 187.5 0 179.777344 0 170.25 L 0 17.25 C 0 7.722656 7.722656 0 17.25 0 " clip-rule="nonzero"/></clipPath></defs><g clip-path="url(#47fd485379)"><path fill="#ffffff" d="M 0 0 L 187.5 0 L 187.5 195 L 0 195 Z M 0 0 " fill-opacity="1" fill-rule="nonzero"/><path fill="#ffffff" d="M 0 0 L 187.5 0 L 187.5 187.5 L 0 187.5 Z M 0 0 " fill-opacity="1" fill-rule="nonzero"/><path fill="#ffffff" d="M 0 0 L 187.5 0 L 187.5 187.5 L 0 187.5 Z M 0 0 " fill-opacity="1" fill-rule="nonzero"/></g><g clip-path="url(#a6c37d8d40)"><g clip-path="url(#883f6afda4)"><path fill="#5e17eb" d="M 0 0 L 187.5 0 L 187.5 187.5 L 0 187.5 Z M 0 0 " fill-opacity="1" fill-rule="nonzero"/></g></g><g fill="#ffffff" fill-opacity="1"><g transform="translate(32.370725, 150.350162)"><g><path d="M 45.421875 1.21875 C 37.648438 1.21875 30.8125 -0.445312 24.90625 -3.78125 C 19 -7.113281 14.429688 -11.832031 11.203125 -17.9375 C 7.972656 -24.050781 6.359375 -31.09375 6.359375 -39.0625 L 6.359375 -66.921875 C 6.359375 -74.898438 8 -81.941406 11.28125 -88.046875 C 14.5625 -94.160156 19.203125 -98.878906 25.203125 -102.203125 C 31.210938 -105.535156 38.15625 -107.203125 46.03125 -107.203125 L 62.078125 -107.203125 C 69.648438 -107.203125 76.3125 -105.585938 82.0625 -102.359375 C 87.820312 -99.128906 92.289062 -94.613281 95.46875 -88.8125 C 98.644531 -83.007812 100.234375 -76.269531 100.234375 -68.59375 L 79.640625 -68.59375 C 79.640625 -74.644531 78.023438 -79.515625 74.796875 -83.203125 C 71.566406 -86.890625 67.328125 -88.734375 62.078125 -88.734375 L 46.03125 -88.734375 C 40.375 -88.734375 35.828125 -86.640625 32.390625 -82.453125 C 28.960938 -78.265625 27.25 -72.785156 27.25 -66.015625 L 27.25 -39.96875 C 27.25 -33.207031 28.914062 -27.734375 32.25 -23.546875 C 35.582031 -19.359375 39.972656 -17.265625 45.421875 -17.265625 L 61.78125 -17.265625 C 67.132812 -17.265625 71.5 -19.332031 74.875 -23.46875 C 78.257812 -27.601562 79.953125 -33.054688 79.953125 -39.828125 L 100.546875 -39.828125 C 100.546875 -31.648438 98.929688 -24.457031 95.703125 -18.25 C 92.472656 -12.039062 87.925781 -7.242188 82.0625 -3.859375 C 76.207031 -0.472656 69.445312 1.21875 61.78125 1.21875 Z M 45.421875 1.21875 "/></g></g></g><g fill="#7ed957" fill-opacity="1"><g transform="translate(128.098418, 66.739525)"><g><path d="M 18.171875 1.515625 C 14.429688 1.515625 11.425781 0.378906 9.15625 -1.890625 C 6.882812 -4.160156 5.75 -7.164062 5.75 -10.90625 C 5.75 -14.632812 6.882812 -17.632812 9.15625 -19.90625 C 11.425781 -22.175781 14.429688 -23.3125 18.171875 -23.3125 C 21.898438 -23.3125 24.898438 -22.175781 27.171875 -19.90625 C 29.453125 -17.632812 30.59375 -14.632812 30.59375 -10.90625 C 30.59375 -7.164062 29.453125 -4.160156 27.171875 -1.890625 C 24.898438 0.378906 21.898438 1.515625 18.171875 1.515625 Z M 18.171875 1.515625 "/></g></g></g></svg>
