<svg xmlns="http://www.w3.org/2000/svg" xmlns:xlink="http://www.w3.org/1999/xlink" width="1500" zoomAndPan="magnify" viewBox="0 0 1125 374.999991" height="500" preserveAspectRatio="xMidYMid meet" version="1.0"><defs><g/><clipPath id="5466e3e433"><path d="M 17.25 0 L 1107.75 0 C 1112.324219 0 1116.710938 1.816406 1119.949219 5.050781 C 1123.183594 8.289062 1125 12.675781 1125 17.25 L 1125 357.75 C 1125 362.324219 1123.183594 366.710938 1119.949219 369.949219 C 1116.710938 373.183594 1112.324219 375 1107.75 375 L 17.25 375 C 12.675781 375 8.289062 373.183594 5.050781 369.949219 C 1.816406 366.710938 0 362.324219 0 357.75 L 0 17.25 C 0 12.675781 1.816406 8.289062 5.050781 5.050781 C 8.289062 1.816406 12.675781 0 17.25 0 " clip-rule="nonzero"/></clipPath></defs><g clip-path="url(#5466e3e433)"><rect x="-112.5" width="1350" fill="#292929" y="-37.499999" height="449.999989" fill-opacity="1"/></g><g fill="#ffffff" fill-opacity="1"><g transform="translate(67.792978, 246.749984)"><g><path d="M 48 1.28125 C 39.789062 1.28125 32.5625 -0.476562 26.3125 -4 C 20.070312 -7.519531 15.242188 -12.503906 11.828125 -18.953125 C 8.421875 -25.410156 6.71875 -32.851562 6.71875 -41.28125 L 6.71875 -70.71875 C 6.71875 -79.144531 8.453125 -86.582031 11.921875 -93.03125 C 15.390625 -99.488281 20.296875 -104.476562 26.640625 -108 C 32.984375 -111.519531 40.316406 -113.28125 48.640625 -113.28125 L 65.59375 -113.28125 C 73.59375 -113.28125 80.632812 -111.570312 86.71875 -108.15625 C 92.800781 -104.75 97.519531 -99.976562 100.875 -93.84375 C 104.238281 -87.707031 105.921875 -80.585938 105.921875 -72.484375 L 84.15625 -72.484375 C 84.15625 -78.878906 82.445312 -84.023438 79.03125 -87.921875 C 75.625 -91.816406 71.144531 -93.765625 65.59375 -93.765625 L 48.640625 -93.765625 C 42.671875 -93.765625 37.867188 -91.550781 34.234375 -87.125 C 30.609375 -82.695312 28.796875 -76.910156 28.796875 -69.765625 L 28.796875 -42.234375 C 28.796875 -35.085938 30.554688 -29.300781 34.078125 -24.875 C 37.597656 -20.445312 42.238281 -18.234375 48 -18.234375 L 65.28125 -18.234375 C 70.9375 -18.234375 75.550781 -20.421875 79.125 -24.796875 C 82.695312 -29.171875 84.484375 -34.929688 84.484375 -42.078125 L 106.234375 -42.078125 C 106.234375 -33.441406 104.523438 -25.84375 101.109375 -19.28125 C 97.703125 -12.71875 92.90625 -7.648438 86.71875 -4.078125 C 80.53125 -0.503906 73.382812 1.28125 65.28125 1.28125 Z M 48 1.28125 "/></g></g></g><g fill="#ffffff" fill-opacity="1"><g transform="translate(177.870279, 246.749984)"><g><path d="M 36.3125 1.28125 C 27.894531 1.28125 21.125 -1.570312 16 -7.28125 C 10.875 -12.988281 8.3125 -20.484375 8.3125 -29.765625 L 8.3125 -79.84375 L 30.078125 -79.84375 L 30.078125 -29.4375 C 30.078125 -25.914062 30.957031 -23.0625 32.71875 -20.875 C 34.476562 -18.6875 36.800781 -17.59375 39.6875 -17.59375 L 48.953125 -17.59375 C 52.472656 -17.59375 55.671875 -19.0625 58.546875 -22 C 61.429688 -24.9375 63.460938 -28.800781 64.640625 -33.59375 L 64.640625 -79.84375 L 86.40625 -79.84375 L 86.40625 0 L 66.234375 0 L 66.234375 -10.234375 C 63.785156 -6.828125 60.773438 -4.054688 57.203125 -1.921875 C 53.628906 0.210938 50.1875 1.28125 46.875 1.28125 Z M 36.3125 1.28125 "/></g></g></g><g fill="#ffffff" fill-opacity="1"><g transform="translate(273.547939, 246.749984)"><g><path d="M 37.59375 1.28125 C 27.894531 1.28125 20.109375 -1.273438 14.234375 -6.390625 C 8.367188 -11.515625 5.4375 -18.238281 5.4375 -26.5625 L 26.875 -26.5625 C 26.875 -23.675781 27.859375 -21.351562 29.828125 -19.59375 C 31.804688 -17.832031 34.394531 -16.953125 37.59375 -16.953125 L 52 -16.953125 C 58.394531 -16.953125 61.59375 -18.710938 61.59375 -22.234375 L 61.59375 -24.953125 C 61.59375 -26.023438 61.0625 -27.015625 60 -27.921875 C 58.9375 -28.828125 57.5 -29.441406 55.6875 -29.765625 L 28 -34.5625 C 21.488281 -35.625 16.335938 -37.941406 12.546875 -41.515625 C 8.765625 -45.085938 6.875 -49.273438 6.875 -54.078125 L 6.875 -59.359375 C 6.875 -66.179688 9.675781 -71.515625 15.28125 -75.359375 C 20.882812 -79.203125 28.695312 -81.125 38.71875 -81.125 L 51.203125 -81.125 C 60.160156 -81.125 67.382812 -78.75 72.875 -74 C 78.375 -69.25 81.125 -62.984375 81.125 -55.203125 L 59.6875 -55.203125 C 59.6875 -57.546875 58.910156 -59.410156 57.359375 -60.796875 C 55.816406 -62.179688 53.765625 -62.875 51.203125 -62.875 L 39.046875 -62.875 C 32.109375 -62.875 28.640625 -61.273438 28.640625 -58.078125 L 28.640625 -55.515625 C 28.640625 -54.347656 29.09375 -53.363281 30 -52.5625 C 30.90625 -51.757812 32.210938 -51.195312 33.921875 -50.875 L 63.046875 -45.59375 C 69.117188 -44.53125 74.019531 -42.265625 77.75 -38.796875 C 81.488281 -35.328125 83.359375 -31.410156 83.359375 -27.046875 L 83.359375 -21.28125 C 83.359375 -14.34375 80.503906 -8.847656 74.796875 -4.796875 C 69.085938 -0.742188 61.488281 1.28125 52 1.28125 Z M 37.59375 1.28125 "/></g></g></g><g fill="#ffffff" fill-opacity="1"><g transform="translate(361.385778, 246.749984)"><g><path d="M 44.15625 0 C 34.769531 0 27.890625 -2.128906 23.515625 -6.390625 C 19.140625 -10.660156 16.953125 -17.273438 16.953125 -26.234375 L 16.953125 -61.28125 L 2.875 -61.28125 L 2.875 -79.84375 L 17.59375 -79.84375 L 17.59375 -104 L 38.71875 -104 L 38.71875 -79.84375 L 59.515625 -79.84375 L 59.515625 -61.28125 L 38.71875 -61.28125 L 38.71875 -27.203125 C 38.71875 -24.210938 39.273438 -22.023438 40.390625 -20.640625 C 41.515625 -19.253906 43.304688 -18.5625 45.765625 -18.5625 L 59.515625 -18.5625 L 59.515625 0 Z M 44.15625 0 "/></g></g></g><g fill="#ffffff" fill-opacity="1"><g transform="translate(426.984177, 246.749984)"><g><path d="M 40.15625 1.28125 C 33.4375 1.28125 27.488281 -0.0234375 22.3125 -2.640625 C 17.144531 -5.253906 13.144531 -8.957031 10.3125 -13.75 C 7.488281 -18.550781 6.078125 -24.101562 6.078125 -30.40625 L 6.078125 -49.125 C 6.078125 -55.414062 7.515625 -60.988281 10.390625 -65.84375 C 13.273438 -70.695312 17.300781 -74.457031 22.46875 -77.125 C 27.644531 -79.789062 33.59375 -81.125 40.3125 -81.125 L 54.71875 -81.125 C 61.4375 -81.125 67.378906 -79.789062 72.546875 -77.125 C 77.722656 -74.457031 81.75 -70.695312 84.625 -65.84375 C 87.507812 -60.988281 88.953125 -55.414062 88.953125 -49.125 L 88.953125 -30.40625 C 88.953125 -24.101562 87.507812 -18.550781 84.625 -13.75 C 81.75 -8.957031 77.722656 -5.253906 72.546875 -2.640625 C 67.378906 -0.0234375 61.382812 1.28125 54.5625 1.28125 Z M 54.234375 -17.4375 C 58.179688 -17.4375 61.328125 -18.796875 63.671875 -21.515625 C 66.023438 -24.234375 67.203125 -27.78125 67.203125 -32.15625 L 67.203125 -47.6875 C 67.203125 -52.050781 66.023438 -55.59375 63.671875 -58.3125 C 61.328125 -61.039062 58.238281 -62.40625 54.40625 -62.40625 L 40.640625 -62.40625 C 36.796875 -62.40625 33.703125 -61.039062 31.359375 -58.3125 C 29.015625 -55.59375 27.84375 -52.050781 27.84375 -47.6875 L 27.84375 -32.15625 C 27.84375 -27.78125 29.015625 -24.234375 31.359375 -21.515625 C 33.703125 -18.796875 36.742188 -17.4375 40.484375 -17.4375 Z M 54.234375 -17.4375 "/></g></g></g><g fill="#ffffff" fill-opacity="1"><g transform="translate(522.02186, 246.749984)"><g><path d="M 100.484375 -81.125 C 108.585938 -81.125 115.09375 -78.484375 120 -73.203125 C 124.90625 -67.921875 127.359375 -61.015625 127.359375 -52.484375 L 127.359375 0 L 105.59375 0 L 105.59375 -52.484375 C 105.59375 -55.460938 104.898438 -57.832031 103.515625 -59.59375 C 102.128906 -61.351562 100.316406 -62.234375 98.078125 -62.234375 L 91.203125 -62.234375 C 88.210938 -62.234375 85.597656 -61.140625 83.359375 -58.953125 C 81.117188 -56.773438 79.734375 -53.867188 79.203125 -50.234375 L 79.203125 0 L 57.4375 0 L 57.4375 -52.3125 C 57.4375 -55.300781 56.742188 -57.703125 55.359375 -59.515625 C 53.972656 -61.328125 52.160156 -62.234375 49.921875 -62.234375 L 43.6875 -62.234375 C 40.59375 -62.234375 37.867188 -60.847656 35.515625 -58.078125 C 33.171875 -55.304688 31.679688 -51.679688 31.046875 -47.203125 L 31.046875 0 L 9.28125 0 L 9.28125 -79.84375 L 29.4375 -79.84375 L 29.4375 -70.5625 C 31.351562 -73.757812 33.832031 -76.316406 36.875 -78.234375 C 39.914062 -80.160156 42.984375 -81.125 46.078125 -81.125 L 55.046875 -81.125 C 58.878906 -81.125 62.367188 -80.109375 65.515625 -78.078125 C 68.660156 -76.054688 71.140625 -73.226562 72.953125 -69.59375 C 75.304688 -73.226562 78.109375 -76.054688 81.359375 -78.078125 C 84.609375 -80.109375 88.050781 -81.125 91.6875 -81.125 Z M 100.484375 -81.125 "/></g></g></g><g fill="#ffffff" fill-opacity="1"><g transform="translate(657.698517, 246.749984)"><g><path d="M 48 1.28125 C 39.789062 1.28125 32.5625 -0.476562 26.3125 -4 C 20.070312 -7.519531 15.242188 -12.503906 11.828125 -18.953125 C 8.421875 -25.410156 6.71875 -32.851562 6.71875 -41.28125 L 6.71875 -70.71875 C 6.71875 -79.144531 8.453125 -86.582031 11.921875 -93.03125 C 15.390625 -99.488281 20.296875 -104.476562 26.640625 -108 C 32.984375 -111.519531 40.316406 -113.28125 48.640625 -113.28125 L 65.59375 -113.28125 C 73.59375 -113.28125 80.632812 -111.570312 86.71875 -108.15625 C 92.800781 -104.75 97.519531 -99.976562 100.875 -93.84375 C 104.238281 -87.707031 105.921875 -80.585938 105.921875 -72.484375 L 84.15625 -72.484375 C 84.15625 -78.878906 82.445312 -84.023438 79.03125 -87.921875 C 75.625 -91.816406 71.144531 -93.765625 65.59375 -93.765625 L 48.640625 -93.765625 C 42.671875 -93.765625 37.867188 -91.550781 34.234375 -87.125 C 30.609375 -82.695312 28.796875 -76.910156 28.796875 -69.765625 L 28.796875 -42.234375 C 28.796875 -35.085938 30.554688 -29.300781 34.078125 -24.875 C 37.597656 -20.445312 42.238281 -18.234375 48 -18.234375 L 65.28125 -18.234375 C 70.9375 -18.234375 75.550781 -20.421875 79.125 -24.796875 C 82.695312 -29.171875 84.484375 -34.929688 84.484375 -42.078125 L 106.234375 -42.078125 C 106.234375 -33.441406 104.523438 -25.84375 101.109375 -19.28125 C 97.703125 -12.71875 92.90625 -7.648438 86.71875 -4.078125 C 80.53125 -0.503906 73.382812 1.28125 65.28125 1.28125 Z M 48 1.28125 "/></g></g></g><g fill="#ffffff" fill-opacity="1"><g transform="translate(767.775841, 246.749984)"><g><path d="M 9.28125 -112 L 31.046875 -112 L 31.046875 -71.84375 C 33.390625 -74.613281 36.289062 -76.851562 39.75 -78.5625 C 43.21875 -80.269531 46.554688 -81.125 49.765625 -81.125 L 59.6875 -81.125 C 68.21875 -81.125 75.066406 -78.457031 80.234375 -73.125 C 85.410156 -67.789062 88 -60.75 88 -52 L 88 0 L 66.234375 0 L 66.234375 -51.203125 C 66.234375 -54.503906 65.351562 -57.164062 63.59375 -59.1875 C 61.832031 -61.21875 59.566406 -62.234375 56.796875 -62.234375 L 46.875 -62.234375 C 43.144531 -62.234375 39.8125 -60.875 36.875 -58.15625 C 33.945312 -55.4375 32.003906 -51.890625 31.046875 -47.515625 L 31.046875 0 L 9.28125 0 Z M 9.28125 -112 "/></g></g></g><g fill="#ffffff" fill-opacity="1"><g transform="translate(864.093522, 246.749984)"><g><path d="M 34.5625 1.28125 C 26.238281 1.28125 19.515625 -0.796875 14.390625 -4.953125 C 9.273438 -9.117188 6.71875 -14.613281 6.71875 -21.4375 L 6.71875 -27.359375 C 6.71875 -34.078125 9.382812 -39.488281 14.71875 -43.59375 C 20.050781 -47.707031 27.09375 -49.765625 35.84375 -49.765625 L 45.59375 -49.765625 C 48.375 -49.765625 51.363281 -49.390625 54.5625 -48.640625 C 57.757812 -47.890625 60.691406 -46.875 63.359375 -45.59375 L 63.359375 -53.921875 C 63.359375 -56.585938 62.476562 -58.742188 60.71875 -60.390625 C 58.957031 -62.046875 56.640625 -62.875 53.765625 -62.875 L 40 -62.875 C 37.007812 -62.875 34.609375 -62.179688 32.796875 -60.796875 C 30.984375 -59.410156 30.078125 -57.546875 30.078125 -55.203125 L 8.953125 -55.203125 C 8.953125 -62.984375 11.804688 -69.25 17.515625 -74 C 23.222656 -78.75 30.71875 -81.125 40 -81.125 L 53.765625 -81.125 C 63.148438 -81.125 70.722656 -78.640625 76.484375 -73.671875 C 82.242188 -68.710938 85.125 -62.128906 85.125 -53.921875 L 85.125 0 L 64.953125 0 L 64.953125 -9.59375 C 62.398438 -6.289062 59.253906 -3.648438 55.515625 -1.671875 C 51.785156 0.296875 48.109375 1.28125 44.484375 1.28125 Z M 46.078125 -15.359375 C 50.023438 -15.359375 53.546875 -16.367188 56.640625 -18.390625 C 59.734375 -20.421875 61.972656 -23.144531 63.359375 -26.5625 L 63.359375 -29.28125 C 61.648438 -30.5625 59.273438 -31.570312 56.234375 -32.3125 C 53.203125 -33.0625 49.976562 -33.4375 46.5625 -33.4375 L 36.484375 -33.4375 C 33.921875 -33.4375 31.835938 -32.796875 30.234375 -31.515625 C 28.640625 -30.234375 27.84375 -28.53125 27.84375 -26.40625 L 27.84375 -22.234375 C 27.84375 -20.210938 28.722656 -18.5625 30.484375 -17.28125 C 32.242188 -16 34.5625 -15.359375 37.4375 -15.359375 Z M 46.078125 -15.359375 "/></g></g></g><g fill="#ffffff" fill-opacity="1"><g transform="translate(957.53123, 246.749984)"><g><path d="M 9.28125 -79.84375 L 29.4375 -79.84375 L 29.4375 -69.59375 C 31.46875 -72.6875 34.375 -75.21875 38.15625 -77.1875 C 41.945312 -79.164062 45.921875 -80.15625 50.078125 -80.15625 L 60.953125 -80.15625 L 60.953125 -61.28125 L 50.078125 -61.28125 C 44.421875 -61.28125 39.832031 -59.570312 36.3125 -56.15625 C 32.800781 -52.75 31.046875 -48.378906 31.046875 -43.046875 L 31.046875 0 L 9.28125 0 Z M 9.28125 -79.84375 "/></g></g></g><g fill="#7ed957" fill-opacity="1"><g transform="translate(1018.804634, 246.749984)"><g><path d="M 19.203125 1.59375 C 15.253906 1.59375 12.078125 0.394531 9.671875 -2 C 7.273438 -4.394531 6.078125 -7.566406 6.078125 -11.515625 C 6.078125 -15.460938 7.273438 -18.632812 9.671875 -21.03125 C 12.078125 -23.4375 15.253906 -24.640625 19.203125 -24.640625 C 23.148438 -24.640625 26.320312 -23.4375 28.71875 -21.03125 C 31.113281 -18.632812 32.3125 -15.460938 32.3125 -11.515625 C 32.3125 -7.566406 31.113281 -4.394531 28.71875 -2 C 26.320312 0.394531 23.148438 1.59375 19.203125 1.59375 Z M 19.203125 1.59375 "/></g></g></g></svg>