<svg xmlns="http://www.w3.org/2000/svg" xmlns:xlink="http://www.w3.org/1999/xlink" width="1200" zoomAndPan="magnify" viewBox="0 0 900 299.999988" height="400" preserveAspectRatio="xMidYMid meet" version="1.0"><defs><g/><clipPath id="91286c322c"><path d="M 0 0 L 900 0 L 900 299.992188 L 0 299.992188 Z M 0 0 " clip-rule="nonzero"/></clipPath><clipPath id="91e5f24b64"><path d="M 17.25 0 L 882.75 0 C 892.277344 0 900 7.722656 900 17.25 L 900 282.75 C 900 292.277344 892.277344 300 882.75 300 L 17.25 300 C 7.722656 300 0 292.277344 0 282.75 L 0 17.25 C 0 7.722656 7.722656 0 17.25 0 " clip-rule="nonzero"/></clipPath><linearGradient x1="0" gradientTransform="matrix(0.703125, 0, 0, 0.703125, 0.000018, 0)" y1="0" x2="1279.999947" gradientUnits="userSpaceOnUse" y2="0" id="1f37bf3c4a"><stop stop-opacity="1" stop-color="rgb(0%, 28.999329%, 67.799377%)" offset="0"/><stop stop-opacity="1" stop-color="rgb(0.309753%, 29.051208%, 67.886353%)" offset="0.00390625"/><stop stop-opacity="1" stop-color="rgb(0.621033%, 29.104614%, 67.974854%)" offset="0.0078125"/><stop stop-opacity="1" stop-color="rgb(0.932312%, 29.156494%, 68.061829%)" offset="0.0117188"/><stop stop-opacity="1" stop-color="rgb(1.243591%, 29.208374%, 68.148804%)" offset="0.015625"/><stop stop-opacity="1" stop-color="rgb(1.553345%, 29.260254%, 68.235779%)" offset="0.0195312"/><stop stop-opacity="1" stop-color="rgb(1.864624%, 29.31366%, 68.32428%)" offset="0.0234375"/><stop stop-opacity="1" stop-color="rgb(2.175903%, 29.36554%, 68.411255%)" offset="0.0273438"/><stop stop-opacity="1" stop-color="rgb(2.487183%, 29.417419%, 68.499756%)" offset="0.03125"/><stop stop-opacity="1" stop-color="rgb(2.796936%, 29.469299%, 68.586731%)" offset="0.0351562"/><stop stop-opacity="1" stop-color="rgb(3.108215%, 29.522705%, 68.673706%)" offset="0.0390625"/><stop stop-opacity="1" stop-color="rgb(3.419495%, 29.574585%, 68.760681%)" offset="0.0429688"/><stop stop-opacity="1" stop-color="rgb(3.730774%, 29.627991%, 68.849182%)" offset="0.046875"/><stop stop-opacity="1" stop-color="rgb(4.040527%, 29.679871%, 68.936157%)" offset="0.0507812"/><stop stop-opacity="1" stop-color="rgb(4.351807%, 29.73175%, 69.024658%)" offset="0.0546875"/><stop stop-opacity="1" stop-color="rgb(4.663086%, 29.78363%, 69.111633%)" offset="0.0585938"/><stop stop-opacity="1" stop-color="rgb(4.974365%, 29.837036%, 69.198608%)" offset="0.0625"/><stop stop-opacity="1" stop-color="rgb(5.284119%, 29.888916%, 69.285583%)" offset="0.0664062"/><stop stop-opacity="1" stop-color="rgb(5.595398%, 29.940796%, 69.374084%)" offset="0.0703125"/><stop stop-opacity="1" stop-color="rgb(5.906677%, 29.992676%, 69.46106%)" offset="0.0742188"/><stop stop-opacity="1" stop-color="rgb(6.217957%, 30.046082%, 69.549561%)" offset="0.078125"/><stop stop-opacity="1" stop-color="rgb(6.529236%, 30.097961%, 69.636536%)" offset="0.0820312"/><stop stop-opacity="1" stop-color="rgb(6.840515%, 30.151367%, 69.723511%)" offset="0.0859375"/><stop stop-opacity="1" stop-color="rgb(7.150269%, 30.203247%, 69.810486%)" offset="0.0898438"/><stop stop-opacity="1" stop-color="rgb(7.461548%, 30.255127%, 69.898987%)" offset="0.09375"/><stop stop-opacity="1" stop-color="rgb(7.772827%, 30.307007%, 69.985962%)" offset="0.0976562"/><stop stop-opacity="1" stop-color="rgb(8.084106%, 30.360413%, 70.074463%)" offset="0.101562"/><stop stop-opacity="1" stop-color="rgb(8.39386%, 30.412292%, 70.161438%)" offset="0.105469"/><stop stop-opacity="1" stop-color="rgb(8.705139%, 30.464172%, 70.249939%)" offset="0.109375"/><stop stop-opacity="1" stop-color="rgb(9.016418%, 30.516052%, 70.336914%)" offset="0.113281"/><stop stop-opacity="1" stop-color="rgb(9.327698%, 30.569458%, 70.423889%)" offset="0.117188"/><stop stop-opacity="1" stop-color="rgb(9.637451%, 30.621338%, 70.510864%)" offset="0.121094"/><stop stop-opacity="1" stop-color="rgb(9.94873%, 30.674744%, 70.599365%)" offset="0.125"/><stop stop-opacity="1" stop-color="rgb(10.26001%, 30.726624%, 70.68634%)" offset="0.128906"/><stop stop-opacity="1" stop-color="rgb(10.571289%, 30.778503%, 70.774841%)" offset="0.132812"/><stop stop-opacity="1" stop-color="rgb(10.881042%, 30.830383%, 70.861816%)" offset="0.136719"/><stop stop-opacity="1" stop-color="rgb(11.192322%, 30.883789%, 70.948792%)" offset="0.140625"/><stop stop-opacity="1" stop-color="rgb(11.503601%, 30.935669%, 71.035767%)" offset="0.144531"/><stop stop-opacity="1" stop-color="rgb(11.81488%, 30.987549%, 71.124268%)" offset="0.148438"/><stop stop-opacity="1" stop-color="rgb(12.12616%, 31.039429%, 71.211243%)" offset="0.152344"/><stop stop-opacity="1" stop-color="rgb(12.437439%, 31.092834%, 71.299744%)" offset="0.15625"/><stop stop-opacity="1" stop-color="rgb(12.747192%, 31.144714%, 71.386719%)" offset="0.160156"/><stop stop-opacity="1" stop-color="rgb(13.058472%, 31.19812%, 71.473694%)" offset="0.164062"/><stop stop-opacity="1" stop-color="rgb(13.369751%, 31.25%, 71.560669%)" offset="0.167969"/><stop stop-opacity="1" stop-color="rgb(13.68103%, 31.30188%, 71.64917%)" offset="0.171875"/><stop stop-opacity="1" stop-color="rgb(13.990784%, 31.35376%, 71.736145%)" offset="0.175781"/><stop stop-opacity="1" stop-color="rgb(14.302063%, 31.407166%, 71.824646%)" offset="0.179688"/><stop stop-opacity="1" stop-color="rgb(14.613342%, 31.459045%, 71.911621%)" offset="0.183594"/><stop stop-opacity="1" stop-color="rgb(14.924622%, 31.512451%, 71.998596%)" offset="0.1875"/><stop stop-opacity="1" stop-color="rgb(15.234375%, 31.564331%, 72.085571%)" offset="0.191406"/><stop stop-opacity="1" stop-color="rgb(15.545654%, 31.616211%, 72.174072%)" offset="0.195312"/><stop stop-opacity="1" stop-color="rgb(15.856934%, 31.668091%, 72.261047%)" offset="0.199219"/><stop stop-opacity="1" stop-color="rgb(16.168213%, 31.721497%, 72.349548%)" offset="0.203125"/><stop stop-opacity="1" stop-color="rgb(16.477966%, 31.773376%, 72.436523%)" offset="0.207031"/><stop stop-opacity="1" stop-color="rgb(16.789246%, 31.825256%, 72.523499%)" offset="0.210938"/><stop stop-opacity="1" stop-color="rgb(17.100525%, 31.877136%, 72.610474%)" offset="0.214844"/><stop stop-opacity="1" stop-color="rgb(17.411804%, 31.930542%, 72.698975%)" offset="0.21875"/><stop stop-opacity="1" stop-color="rgb(17.723083%, 31.982422%, 72.78595%)" offset="0.222656"/><stop stop-opacity="1" stop-color="rgb(18.034363%, 32.035828%, 72.874451%)" offset="0.226562"/><stop stop-opacity="1" stop-color="rgb(18.344116%, 32.087708%, 72.961426%)" offset="0.230469"/><stop stop-opacity="1" stop-color="rgb(18.655396%, 32.139587%, 73.049927%)" offset="0.234375"/><stop stop-opacity="1" stop-color="rgb(18.966675%, 32.191467%, 73.136902%)" offset="0.238281"/><stop stop-opacity="1" stop-color="rgb(19.277954%, 32.244873%, 73.223877%)" offset="0.242188"/><stop stop-opacity="1" stop-color="rgb(19.587708%, 32.296753%, 73.310852%)" offset="0.246094"/><stop stop-opacity="1" stop-color="rgb(19.898987%, 32.348633%, 73.399353%)" offset="0.25"/><stop stop-opacity="1" stop-color="rgb(20.210266%, 32.400513%, 73.486328%)" offset="0.253906"/><stop stop-opacity="1" stop-color="rgb(20.521545%, 32.453918%, 73.574829%)" offset="0.257812"/><stop stop-opacity="1" stop-color="rgb(20.831299%, 32.505798%, 73.661804%)" offset="0.261719"/><stop stop-opacity="1" stop-color="rgb(21.142578%, 32.559204%, 73.748779%)" offset="0.265625"/><stop stop-opacity="1" stop-color="rgb(21.453857%, 32.611084%, 73.835754%)" offset="0.269531"/><stop stop-opacity="1" stop-color="rgb(21.765137%, 32.662964%, 73.924255%)" offset="0.273438"/><stop stop-opacity="1" stop-color="rgb(22.07489%, 32.714844%, 74.01123%)" offset="0.277344"/><stop stop-opacity="1" stop-color="rgb(22.386169%, 32.76825%, 74.099731%)" offset="0.28125"/><stop stop-opacity="1" stop-color="rgb(22.697449%, 32.820129%, 74.186707%)" offset="0.285156"/><stop stop-opacity="1" stop-color="rgb(23.008728%, 32.872009%, 74.273682%)" offset="0.289062"/><stop stop-opacity="1" stop-color="rgb(23.318481%, 32.923889%, 74.360657%)" offset="0.292969"/><stop stop-opacity="1" stop-color="rgb(23.629761%, 32.977295%, 74.449158%)" offset="0.296875"/><stop stop-opacity="1" stop-color="rgb(23.94104%, 33.029175%, 74.536133%)" offset="0.300781"/><stop stop-opacity="1" stop-color="rgb(24.252319%, 33.082581%, 74.624634%)" offset="0.304688"/><stop stop-opacity="1" stop-color="rgb(24.563599%, 33.13446%, 74.711609%)" offset="0.308594"/><stop stop-opacity="1" stop-color="rgb(24.874878%, 33.18634%, 74.798584%)" offset="0.3125"/><stop stop-opacity="1" stop-color="rgb(25.184631%, 33.23822%, 74.885559%)" offset="0.316406"/><stop stop-opacity="1" stop-color="rgb(25.495911%, 33.291626%, 74.97406%)" offset="0.320312"/><stop stop-opacity="1" stop-color="rgb(25.80719%, 33.343506%, 75.061035%)" offset="0.324219"/><stop stop-opacity="1" stop-color="rgb(26.118469%, 33.395386%, 75.149536%)" offset="0.328125"/><stop stop-opacity="1" stop-color="rgb(26.428223%, 33.447266%, 75.236511%)" offset="0.332031"/><stop stop-opacity="1" stop-color="rgb(26.739502%, 33.500671%, 75.323486%)" offset="0.335938"/><stop stop-opacity="1" stop-color="rgb(27.050781%, 33.552551%, 75.410461%)" offset="0.339844"/><stop stop-opacity="1" stop-color="rgb(27.362061%, 33.605957%, 75.498962%)" offset="0.34375"/><stop stop-opacity="1" stop-color="rgb(27.671814%, 33.657837%, 75.585938%)" offset="0.347656"/><stop stop-opacity="1" stop-color="rgb(27.983093%, 33.709717%, 75.674438%)" offset="0.351562"/><stop stop-opacity="1" stop-color="rgb(28.294373%, 33.761597%, 75.761414%)" offset="0.355469"/><stop stop-opacity="1" stop-color="rgb(28.605652%, 33.815002%, 75.849915%)" offset="0.359375"/><stop stop-opacity="1" stop-color="rgb(28.915405%, 33.866882%, 75.93689%)" offset="0.363281"/><stop stop-opacity="1" stop-color="rgb(29.226685%, 33.920288%, 76.023865%)" offset="0.367188"/><stop stop-opacity="1" stop-color="rgb(29.537964%, 33.972168%, 76.11084%)" offset="0.371094"/><stop stop-opacity="1" stop-color="rgb(29.849243%, 34.024048%, 76.199341%)" offset="0.375"/><stop stop-opacity="1" stop-color="rgb(30.160522%, 34.075928%, 76.286316%)" offset="0.378906"/><stop stop-opacity="1" stop-color="rgb(30.471802%, 34.129333%, 76.374817%)" offset="0.382812"/><stop stop-opacity="1" stop-color="rgb(30.781555%, 34.181213%, 76.461792%)" offset="0.386719"/><stop stop-opacity="1" stop-color="rgb(31.092834%, 34.233093%, 76.548767%)" offset="0.390625"/><stop stop-opacity="1" stop-color="rgb(31.404114%, 34.284973%, 76.635742%)" offset="0.394531"/><stop stop-opacity="1" stop-color="rgb(31.715393%, 34.338379%, 76.724243%)" offset="0.398438"/><stop stop-opacity="1" stop-color="rgb(32.025146%, 34.390259%, 76.811218%)" offset="0.402344"/><stop stop-opacity="1" stop-color="rgb(32.336426%, 34.443665%, 76.899719%)" offset="0.40625"/><stop stop-opacity="1" stop-color="rgb(32.647705%, 34.495544%, 76.986694%)" offset="0.410156"/><stop stop-opacity="1" stop-color="rgb(32.958984%, 34.547424%, 77.073669%)" offset="0.414062"/><stop stop-opacity="1" stop-color="rgb(33.268738%, 34.599304%, 77.160645%)" offset="0.417969"/><stop stop-opacity="1" stop-color="rgb(33.580017%, 34.65271%, 77.249146%)" offset="0.421875"/><stop stop-opacity="1" stop-color="rgb(33.891296%, 34.70459%, 77.336121%)" offset="0.425781"/><stop stop-opacity="1" stop-color="rgb(34.202576%, 34.75647%, 77.424622%)" offset="0.429688"/><stop stop-opacity="1" stop-color="rgb(34.512329%, 34.80835%, 77.511597%)" offset="0.433594"/><stop stop-opacity="1" stop-color="rgb(34.823608%, 34.861755%, 77.598572%)" offset="0.4375"/><stop stop-opacity="1" stop-color="rgb(35.134888%, 34.913635%, 77.685547%)" offset="0.441406"/><stop stop-opacity="1" stop-color="rgb(35.446167%, 34.967041%, 77.774048%)" offset="0.445312"/><stop stop-opacity="1" stop-color="rgb(35.757446%, 35.018921%, 77.861023%)" offset="0.449219"/><stop stop-opacity="1" stop-color="rgb(36.068726%, 35.070801%, 77.949524%)" offset="0.453125"/><stop stop-opacity="1" stop-color="rgb(36.378479%, 35.122681%, 78.036499%)" offset="0.457031"/><stop stop-opacity="1" stop-color="rgb(36.689758%, 35.176086%, 78.123474%)" offset="0.460938"/><stop stop-opacity="1" stop-color="rgb(37.001038%, 35.227966%, 78.210449%)" offset="0.464844"/><stop stop-opacity="1" stop-color="rgb(37.312317%, 35.279846%, 78.29895%)" offset="0.46875"/><stop stop-opacity="1" stop-color="rgb(37.62207%, 35.331726%, 78.385925%)" offset="0.472656"/><stop stop-opacity="1" stop-color="rgb(37.93335%, 35.385132%, 78.474426%)" offset="0.476562"/><stop stop-opacity="1" stop-color="rgb(38.244629%, 35.437012%, 78.561401%)" offset="0.480469"/><stop stop-opacity="1" stop-color="rgb(38.555908%, 35.490417%, 78.649902%)" offset="0.484375"/><stop stop-opacity="1" stop-color="rgb(38.865662%, 35.542297%, 78.736877%)" offset="0.488281"/><stop stop-opacity="1" stop-color="rgb(39.176941%, 35.594177%, 78.823853%)" offset="0.492188"/><stop stop-opacity="1" stop-color="rgb(39.48822%, 35.646057%, 78.910828%)" offset="0.496094"/><stop stop-opacity="1" stop-color="rgb(39.7995%, 35.699463%, 78.999329%)" offset="0.5"/><stop stop-opacity="1" stop-color="rgb(40.109253%, 35.751343%, 79.086304%)" offset="0.503906"/><stop stop-opacity="1" stop-color="rgb(40.420532%, 35.803223%, 79.174805%)" offset="0.507812"/><stop stop-opacity="1" stop-color="rgb(40.731812%, 35.855103%, 79.26178%)" offset="0.511719"/><stop stop-opacity="1" stop-color="rgb(41.043091%, 35.908508%, 79.348755%)" offset="0.515625"/><stop stop-opacity="1" stop-color="rgb(41.352844%, 35.960388%, 79.43573%)" offset="0.519531"/><stop stop-opacity="1" stop-color="rgb(41.664124%, 36.013794%, 79.524231%)" offset="0.523438"/><stop stop-opacity="1" stop-color="rgb(41.975403%, 36.065674%, 79.611206%)" offset="0.527344"/><stop stop-opacity="1" stop-color="rgb(42.286682%, 36.117554%, 79.699707%)" offset="0.53125"/><stop stop-opacity="1" stop-color="rgb(42.597961%, 36.169434%, 79.786682%)" offset="0.535156"/><stop stop-opacity="1" stop-color="rgb(42.909241%, 36.222839%, 79.873657%)" offset="0.539062"/><stop stop-opacity="1" stop-color="rgb(43.218994%, 36.274719%, 79.960632%)" offset="0.542969"/><stop stop-opacity="1" stop-color="rgb(43.530273%, 36.326599%, 80.049133%)" offset="0.546875"/><stop stop-opacity="1" stop-color="rgb(43.841553%, 36.378479%, 80.136108%)" offset="0.550781"/><stop stop-opacity="1" stop-color="rgb(44.152832%, 36.431885%, 80.224609%)" offset="0.554688"/><stop stop-opacity="1" stop-color="rgb(44.462585%, 36.483765%, 80.311584%)" offset="0.558594"/><stop stop-opacity="1" stop-color="rgb(44.773865%, 36.53717%, 80.39856%)" offset="0.5625"/><stop stop-opacity="1" stop-color="rgb(45.085144%, 36.58905%, 80.485535%)" offset="0.566406"/><stop stop-opacity="1" stop-color="rgb(45.396423%, 36.64093%, 80.574036%)" offset="0.570312"/><stop stop-opacity="1" stop-color="rgb(45.706177%, 36.69281%, 80.661011%)" offset="0.574219"/><stop stop-opacity="1" stop-color="rgb(46.017456%, 36.746216%, 80.749512%)" offset="0.578125"/><stop stop-opacity="1" stop-color="rgb(46.328735%, 36.798096%, 80.836487%)" offset="0.582031"/><stop stop-opacity="1" stop-color="rgb(46.640015%, 36.851501%, 80.924988%)" offset="0.585938"/><stop stop-opacity="1" stop-color="rgb(46.949768%, 36.903381%, 81.011963%)" offset="0.589844"/><stop stop-opacity="1" stop-color="rgb(47.261047%, 36.955261%, 81.098938%)" offset="0.59375"/><stop stop-opacity="1" stop-color="rgb(47.572327%, 37.007141%, 81.185913%)" offset="0.597656"/><stop stop-opacity="1" stop-color="rgb(47.883606%, 37.060547%, 81.274414%)" offset="0.601562"/><stop stop-opacity="1" stop-color="rgb(48.194885%, 37.112427%, 81.361389%)" offset="0.605469"/><stop stop-opacity="1" stop-color="rgb(48.506165%, 37.164307%, 81.44989%)" offset="0.609375"/><stop stop-opacity="1" stop-color="rgb(48.815918%, 37.216187%, 81.536865%)" offset="0.613281"/><stop stop-opacity="1" stop-color="rgb(49.127197%, 37.269592%, 81.62384%)" offset="0.617188"/><stop stop-opacity="1" stop-color="rgb(49.438477%, 37.321472%, 81.710815%)" offset="0.621094"/><stop stop-opacity="1" stop-color="rgb(49.749756%, 37.374878%, 81.799316%)" offset="0.625"/><stop stop-opacity="1" stop-color="rgb(50.059509%, 37.426758%, 81.886292%)" offset="0.628906"/><stop stop-opacity="1" stop-color="rgb(50.370789%, 37.478638%, 81.974792%)" offset="0.632812"/><stop stop-opacity="1" stop-color="rgb(50.682068%, 37.530518%, 82.061768%)" offset="0.636719"/><stop stop-opacity="1" stop-color="rgb(50.993347%, 37.583923%, 82.148743%)" offset="0.640625"/><stop stop-opacity="1" stop-color="rgb(51.303101%, 37.635803%, 82.235718%)" offset="0.644531"/><stop stop-opacity="1" stop-color="rgb(51.61438%, 37.687683%, 82.324219%)" offset="0.648438"/><stop stop-opacity="1" stop-color="rgb(51.925659%, 37.739563%, 82.411194%)" offset="0.652344"/><stop stop-opacity="1" stop-color="rgb(52.236938%, 37.792969%, 82.499695%)" offset="0.65625"/><stop stop-opacity="1" stop-color="rgb(52.546692%, 37.844849%, 82.58667%)" offset="0.660156"/><stop stop-opacity="1" stop-color="rgb(52.857971%, 37.898254%, 82.673645%)" offset="0.664062"/><stop stop-opacity="1" stop-color="rgb(53.16925%, 37.950134%, 82.76062%)" offset="0.667969"/><stop stop-opacity="1" stop-color="rgb(53.48053%, 38.002014%, 82.849121%)" offset="0.671875"/><stop stop-opacity="1" stop-color="rgb(53.791809%, 38.053894%, 82.936096%)" offset="0.675781"/><stop stop-opacity="1" stop-color="rgb(54.103088%, 38.1073%, 83.024597%)" offset="0.679688"/><stop stop-opacity="1" stop-color="rgb(54.412842%, 38.15918%, 83.111572%)" offset="0.683594"/><stop stop-opacity="1" stop-color="rgb(54.724121%, 38.21106%, 83.198547%)" offset="0.6875"/><stop stop-opacity="1" stop-color="rgb(55.0354%, 38.262939%, 83.285522%)" offset="0.691406"/><stop stop-opacity="1" stop-color="rgb(55.34668%, 38.316345%, 83.374023%)" offset="0.695312"/><stop stop-opacity="1" stop-color="rgb(55.656433%, 38.368225%, 83.460999%)" offset="0.699219"/><stop stop-opacity="1" stop-color="rgb(55.967712%, 38.421631%, 83.5495%)" offset="0.703125"/><stop stop-opacity="1" stop-color="rgb(56.278992%, 38.473511%, 83.636475%)" offset="0.707031"/><stop stop-opacity="1" stop-color="rgb(56.590271%, 38.525391%, 83.724976%)" offset="0.710938"/><stop stop-opacity="1" stop-color="rgb(56.900024%, 38.577271%, 83.811951%)" offset="0.714844"/><stop stop-opacity="1" stop-color="rgb(57.211304%, 38.630676%, 83.898926%)" offset="0.71875"/><stop stop-opacity="1" stop-color="rgb(57.522583%, 38.682556%, 83.985901%)" offset="0.722656"/><stop stop-opacity="1" stop-color="rgb(57.833862%, 38.734436%, 84.074402%)" offset="0.726562"/><stop stop-opacity="1" stop-color="rgb(58.143616%, 38.786316%, 84.161377%)" offset="0.730469"/><stop stop-opacity="1" stop-color="rgb(58.454895%, 38.839722%, 84.249878%)" offset="0.734375"/><stop stop-opacity="1" stop-color="rgb(58.766174%, 38.891602%, 84.336853%)" offset="0.738281"/><stop stop-opacity="1" stop-color="rgb(59.077454%, 38.945007%, 84.423828%)" offset="0.742188"/><stop stop-opacity="1" stop-color="rgb(59.387207%, 38.996887%, 84.510803%)" offset="0.746094"/><stop stop-opacity="1" stop-color="rgb(59.698486%, 39.048767%, 84.599304%)" offset="0.75"/><stop stop-opacity="1" stop-color="rgb(60.009766%, 39.100647%, 84.686279%)" offset="0.753906"/><stop stop-opacity="1" stop-color="rgb(60.321045%, 39.154053%, 84.77478%)" offset="0.757812"/><stop stop-opacity="1" stop-color="rgb(60.632324%, 39.205933%, 84.861755%)" offset="0.761719"/><stop stop-opacity="1" stop-color="rgb(60.943604%, 39.259338%, 84.94873%)" offset="0.765625"/><stop stop-opacity="1" stop-color="rgb(61.253357%, 39.311218%, 85.035706%)" offset="0.769531"/><stop stop-opacity="1" stop-color="rgb(61.564636%, 39.363098%, 85.124207%)" offset="0.773438"/><stop stop-opacity="1" stop-color="rgb(61.875916%, 39.414978%, 85.211182%)" offset="0.777344"/><stop stop-opacity="1" stop-color="rgb(62.187195%, 39.468384%, 85.299683%)" offset="0.78125"/><stop stop-opacity="1" stop-color="rgb(62.496948%, 39.520264%, 85.386658%)" offset="0.785156"/><stop stop-opacity="1" stop-color="rgb(62.808228%, 39.572144%, 85.473633%)" offset="0.789062"/><stop stop-opacity="1" stop-color="rgb(63.119507%, 39.624023%, 85.560608%)" offset="0.792969"/><stop stop-opacity="1" stop-color="rgb(63.430786%, 39.677429%, 85.649109%)" offset="0.796875"/><stop stop-opacity="1" stop-color="rgb(63.74054%, 39.729309%, 85.736084%)" offset="0.800781"/><stop stop-opacity="1" stop-color="rgb(64.051819%, 39.782715%, 85.824585%)" offset="0.804688"/><stop stop-opacity="1" stop-color="rgb(64.363098%, 39.834595%, 85.91156%)" offset="0.808594"/><stop stop-opacity="1" stop-color="rgb(64.674377%, 39.886475%, 85.998535%)" offset="0.8125"/><stop stop-opacity="1" stop-color="rgb(64.984131%, 39.938354%, 86.08551%)" offset="0.816406"/><stop stop-opacity="1" stop-color="rgb(65.29541%, 39.99176%, 86.174011%)" offset="0.820312"/><stop stop-opacity="1" stop-color="rgb(65.606689%, 40.04364%, 86.260986%)" offset="0.824219"/><stop stop-opacity="1" stop-color="rgb(65.917969%, 40.09552%, 86.349487%)" offset="0.828125"/><stop stop-opacity="1" stop-color="rgb(66.229248%, 40.1474%, 86.436462%)" offset="0.832031"/><stop stop-opacity="1" stop-color="rgb(66.540527%, 40.200806%, 86.524963%)" offset="0.835938"/><stop stop-opacity="1" stop-color="rgb(66.850281%, 40.252686%, 86.611938%)" offset="0.839844"/><stop stop-opacity="1" stop-color="rgb(67.16156%, 40.306091%, 86.698914%)" offset="0.84375"/><stop stop-opacity="1" stop-color="rgb(67.472839%, 40.357971%, 86.785889%)" offset="0.847656"/><stop stop-opacity="1" stop-color="rgb(67.784119%, 40.409851%, 86.87439%)" offset="0.851562"/><stop stop-opacity="1" stop-color="rgb(68.093872%, 40.461731%, 86.961365%)" offset="0.855469"/><stop stop-opacity="1" stop-color="rgb(68.405151%, 40.515137%, 87.049866%)" offset="0.859375"/><stop stop-opacity="1" stop-color="rgb(68.716431%, 40.567017%, 87.136841%)" offset="0.863281"/><stop stop-opacity="1" stop-color="rgb(69.02771%, 40.618896%, 87.223816%)" offset="0.867188"/><stop stop-opacity="1" stop-color="rgb(69.337463%, 40.670776%, 87.310791%)" offset="0.871094"/><stop stop-opacity="1" stop-color="rgb(69.648743%, 40.724182%, 87.399292%)" offset="0.875"/><stop stop-opacity="1" stop-color="rgb(69.960022%, 40.776062%, 87.486267%)" offset="0.878906"/><stop stop-opacity="1" stop-color="rgb(70.271301%, 40.829468%, 87.574768%)" offset="0.882812"/><stop stop-opacity="1" stop-color="rgb(70.581055%, 40.881348%, 87.661743%)" offset="0.886719"/><stop stop-opacity="1" stop-color="rgb(70.892334%, 40.933228%, 87.748718%)" offset="0.890625"/><stop stop-opacity="1" stop-color="rgb(71.203613%, 40.985107%, 87.835693%)" offset="0.894531"/><stop stop-opacity="1" stop-color="rgb(71.514893%, 41.038513%, 87.924194%)" offset="0.898438"/><stop stop-opacity="1" stop-color="rgb(71.826172%, 41.090393%, 88.011169%)" offset="0.902344"/><stop stop-opacity="1" stop-color="rgb(72.137451%, 41.142273%, 88.09967%)" offset="0.90625"/><stop stop-opacity="1" stop-color="rgb(72.447205%, 41.194153%, 88.186646%)" offset="0.910156"/><stop stop-opacity="1" stop-color="rgb(72.758484%, 41.247559%, 88.273621%)" offset="0.914062"/><stop stop-opacity="1" stop-color="rgb(73.069763%, 41.299438%, 88.360596%)" offset="0.917969"/><stop stop-opacity="1" stop-color="rgb(73.381042%, 41.352844%, 88.449097%)" offset="0.921875"/><stop stop-opacity="1" stop-color="rgb(73.690796%, 41.404724%, 88.536072%)" offset="0.925781"/><stop stop-opacity="1" stop-color="rgb(74.002075%, 41.456604%, 88.624573%)" offset="0.929688"/><stop stop-opacity="1" stop-color="rgb(74.313354%, 41.508484%, 88.711548%)" offset="0.933594"/><stop stop-opacity="1" stop-color="rgb(74.624634%, 41.56189%, 88.798523%)" offset="0.9375"/><stop stop-opacity="1" stop-color="rgb(74.934387%, 41.61377%, 88.885498%)" offset="0.941406"/><stop stop-opacity="1" stop-color="rgb(75.245667%, 41.667175%, 88.973999%)" offset="0.945312"/><stop stop-opacity="1" stop-color="rgb(75.556946%, 41.719055%, 89.060974%)" offset="0.949219"/><stop stop-opacity="1" stop-color="rgb(75.868225%, 41.770935%, 89.149475%)" offset="0.953125"/><stop stop-opacity="1" stop-color="rgb(76.177979%, 41.822815%, 89.23645%)" offset="0.957031"/><stop stop-opacity="1" stop-color="rgb(76.489258%, 41.876221%, 89.324951%)" offset="0.960938"/><stop stop-opacity="1" stop-color="rgb(76.800537%, 41.928101%, 89.411926%)" offset="0.964844"/><stop stop-opacity="1" stop-color="rgb(77.111816%, 41.97998%, 89.498901%)" offset="0.96875"/><stop stop-opacity="1" stop-color="rgb(77.42157%, 42.03186%, 89.585876%)" offset="0.972656"/><stop stop-opacity="1" stop-color="rgb(77.732849%, 42.085266%, 89.674377%)" offset="0.976562"/><stop stop-opacity="1" stop-color="rgb(78.044128%, 42.137146%, 89.761353%)" offset="0.980469"/><stop stop-opacity="1" stop-color="rgb(78.355408%, 42.190552%, 89.849854%)" offset="0.984375"/><stop stop-opacity="1" stop-color="rgb(78.666687%, 42.242432%, 89.936829%)" offset="0.988281"/><stop stop-opacity="1" stop-color="rgb(78.977966%, 42.294312%, 90.023804%)" offset="0.992188"/><stop stop-opacity="1" stop-color="rgb(79.28772%, 42.346191%, 90.110779%)" offset="0.996094"/><stop stop-opacity="1" stop-color="rgb(79.598999%, 42.399597%, 90.19928%)" offset="1"/></linearGradient><clipPath id="a57582bdf2"><path d="M 508.882812 34.167969 L 859.507812 34.167969 L 859.507812 83.507812 L 508.882812 83.507812 Z M 508.882812 34.167969 " clip-rule="nonzero"/></clipPath><clipPath id="f14507bece"><path d="M 498.011719 83 L 833 83 L 833 84 L 498.011719 84 Z M 498.011719 83 " clip-rule="nonzero"/></clipPath><clipPath id="a3d908e803"><path d="M 498.011719 79 L 834 79 L 834 86 L 498.011719 86 Z M 498.011719 79 " clip-rule="nonzero"/></clipPath><clipPath id="be405d16a1"><path d="M 498.011719 75 L 835 75 L 835 88 L 498.011719 88 Z M 498.011719 75 " clip-rule="nonzero"/></clipPath><clipPath id="8808603492"><path d="M 503.890625 30.867188 L 848.296875 30.867188 L 848.296875 108.96875 L 503.890625 108.96875 Z M 503.890625 30.867188 " clip-rule="nonzero"/></clipPath></defs><g clip-path="url(#91286c322c)"><g clip-path="url(#91e5f24b64)"><path fill="url(#1f37bf3c4a)" d="M 0 0 L 0 299.992188 L 900 299.992188 L 900 0 Z M 0 0 " fill-rule="nonzero"/></g></g><path fill="#ffffff" d="M 643.109375 93.445312 C 630.308594 93.445312 617.378906 87.894531 603.691406 82.015625 C 587.554688 75.089844 570.867188 67.929688 553.453125 69.789062 C 521.796875 73.167969 504.636719 83.300781 504.46875 83.402344 L 504.285156 83.101562 C 504.457031 83 521.675781 72.828125 553.417969 69.441406 C 570.925781 67.574219 587.652344 74.75 603.828125 81.695312 C 617.480469 87.558594 630.378906 93.09375 643.109375 93.09375 C 656.847656 93.09375 669.410156 84.988281 682.707031 76.410156 C 696.308594 67.632812 710.371094 58.558594 726.546875 57.925781 C 745.308594 57.183594 759.546875 68.40625 772.105469 78.300781 C 780.933594 85.261719 788.5625 91.269531 796.320312 92.160156 C 806.046875 93.277344 810.554688 90.757812 815.324219 88.089844 C 819.957031 85.5 824.742188 82.824219 834.597656 82.824219 L 834.597656 83.171875 C 824.832031 83.171875 820.085938 85.828125 815.496094 88.394531 C 810.675781 91.089844 806.125 93.636719 796.277344 92.507812 C 788.421875 91.609375 780.761719 85.566406 771.886719 78.574219 C 759.378906 68.71875 745.1875 57.546875 726.558594 58.273438 C 710.480469 58.90625 696.457031 67.953125 682.898438 76.703125 C 669.554688 85.3125 656.953125 93.445312 643.109375 93.445312 " fill-opacity="1" fill-rule="nonzero"/><path fill="#ffffff" d="M 644.648438 91.09375 C 631.527344 91.09375 618.695312 85.726562 605.117188 80.050781 C 589.234375 73.410156 572.8125 66.542969 555.246094 68.441406 C 521.890625 72.050781 505.035156 83.253906 504.867188 83.367188 L 504.671875 83.078125 C 504.839844 82.964844 521.769531 71.710938 555.207031 68.09375 C 572.867188 66.1875 589.332031 73.070312 605.253906 79.726562 C 618.96875 85.460938 631.941406 90.871094 645.144531 90.738281 C 658.90625 90.597656 671.816406 82.546875 685.484375 74.027344 C 689.171875 71.726562 692.988281 69.351562 696.847656 67.117188 C 705.21875 62.265625 716.421875 56.625 728.871094 56.027344 C 748.15625 55.046875 762.582031 66.347656 775.300781 76.316406 C 783.808594 82.980469 791.15625 88.734375 798.652344 89.96875 C 808.269531 91.550781 812.714844 89.523438 817.867188 87.179688 C 822.3125 85.15625 827.347656 82.859375 836.671875 82.847656 L 836.671875 83.199219 C 827.425781 83.210938 822.425781 85.488281 818.011719 87.496094 C 813.023438 89.769531 808.3125 91.914062 798.597656 90.316406 C 791.007812 89.066406 783.628906 83.285156 775.085938 76.589844 C 762.414062 66.660156 748.039062 55.410156 728.890625 56.375 C 716.515625 56.96875 705.359375 62.589844 697.023438 67.421875 C 693.167969 69.652344 689.355469 72.027344 685.671875 74.324219 C 671.960938 82.871094 659.007812 90.945312 645.148438 91.089844 C 644.980469 91.09375 644.8125 91.09375 644.648438 91.09375 " fill-opacity="1" fill-rule="nonzero"/><path fill="#ffffff" d="M 809.007812 89.085938 C 806.707031 89.085938 804.078125 88.804688 800.914062 88.121094 C 793.601562 86.539062 786.175781 80.757812 778.316406 74.636719 C 765.476562 64.636719 750.914062 53.304688 731.21875 54.476562 C 721.546875 55.050781 711.707031 58.464844 699.316406 65.539062 C 695.699219 67.601562 692.132812 69.753906 688.683594 71.832031 C 674.511719 80.378906 661.125 88.449219 647.1875 88.738281 C 633.394531 89.011719 620.359375 83.714844 606.554688 78.097656 C 590.925781 71.738281 574.761719 65.160156 557.035156 67.089844 C 522.003906 70.929688 505.433594 83.207031 505.269531 83.332031 L 505.058594 83.054688 C 505.222656 82.929688 521.859375 70.59375 556.996094 66.742188 C 574.808594 64.800781 591.015625 71.398438 606.6875 77.773438 C 620.457031 83.378906 633.457031 88.664062 647.179688 88.386719 C 661.027344 88.101562 674.371094 80.050781 688.503906 71.53125 C 691.953125 69.453125 695.523438 67.300781 699.144531 65.234375 C 711.582031 58.132812 721.46875 54.707031 731.199219 54.128906 C 751.027344 52.949219 765.644531 64.324219 778.53125 74.359375 C 786.359375 80.457031 793.753906 86.214844 800.988281 87.777344 C 810.550781 89.84375 815.199219 88.1875 820.582031 86.269531 C 825.015625 84.6875 830.042969 82.898438 838.746094 82.875 L 838.75 83.226562 C 830.105469 83.246094 825.109375 85.027344 820.699219 86.601562 C 817.046875 87.902344 813.726562 89.085938 809.007812 89.085938 " fill-opacity="1" fill-rule="nonzero"/><path fill="#ffffff" d="M 813.273438 87.441406 C 810.492188 87.441406 807.300781 87.023438 803.230469 85.925781 C 796.214844 84.03125 789.125 78.53125 781.617188 72.707031 C 768.601562 62.609375 753.847656 51.164062 733.546875 52.578125 C 723.871094 53.253906 714.023438 56.671875 701.613281 63.660156 C 698.351562 65.496094 695.136719 67.371094 692.03125 69.1875 C 677.265625 77.808594 663.324219 85.949219 649.226562 86.382812 C 648.660156 86.398438 648.089844 86.410156 647.523438 86.410156 C 633.890625 86.410156 621.304688 81.425781 608.003906 76.164062 C 592.613281 70.074219 576.699219 63.777344 558.824219 65.742188 C 522.109375 69.8125 505.832031 83.164062 505.671875 83.296875 L 505.445312 83.027344 C 505.605469 82.894531 521.953125 69.476562 558.789062 65.394531 C 576.75 63.417969 592.703125 69.734375 608.132812 75.839844 C 621.949219 81.304688 635 86.472656 649.21875 86.03125 C 663.226562 85.601562 677.128906 77.480469 691.851562 68.882812 C 694.960938 67.070312 698.175781 65.191406 701.441406 63.355469 C 713.898438 56.339844 723.792969 52.90625 733.523438 52.230469 C 753.964844 50.804688 768.765625 62.292969 781.828125 72.429688 C 789.308594 78.230469 796.371094 83.710938 803.320312 85.585938 C 812.941406 88.183594 817.632812 86.945312 823.574219 85.382812 C 827.929688 84.234375 832.871094 82.933594 840.824219 82.902344 L 840.824219 83.25 C 832.917969 83.28125 828 84.578125 823.660156 85.71875 C 820.179688 86.636719 817.125 87.441406 813.273438 87.441406 " fill-opacity="1" fill-rule="nonzero"/><path fill="#ffffff" d="M 817.835938 85.972656 C 814.453125 85.972656 810.675781 85.398438 805.546875 83.730469 C 798.851562 81.550781 792.121094 76.335938 784.996094 70.816406 C 771.792969 60.59375 756.832031 49.003906 735.878906 50.679688 C 726.320312 51.445312 716.160156 54.972656 703.910156 61.78125 C 701.167969 63.300781 698.464844 64.832031 695.847656 66.316406 C 679.636719 75.507812 665.636719 83.445312 651.265625 84.03125 C 636.460938 84.628906 623.351562 79.585938 609.460938 74.242188 C 594.308594 68.417969 578.644531 62.390625 560.617188 64.394531 C 522.210938 68.695312 506.230469 83.117188 506.070312 83.261719 L 505.832031 83.007812 C 505.992188 82.859375 522.046875 68.359375 560.578125 64.046875 C 578.691406 62.035156 594.398438 68.074219 609.585938 73.917969 C 623.441406 79.246094 636.535156 84.277344 651.253906 83.679688 C 665.535156 83.101562 679.503906 75.179688 695.675781 66.011719 C 698.292969 64.527344 700.996094 62.996094 703.738281 61.472656 C 716.035156 54.640625 726.238281 51.097656 735.847656 50.332031 C 756.941406 48.648438 771.960938 60.277344 785.210938 70.542969 C 792.3125 76.042969 799.019531 81.234375 805.65625 83.398438 C 815.492188 86.601562 820.324219 85.738281 827.011719 84.546875 C 831.179688 83.804688 835.902344 82.964844 842.898438 82.925781 L 842.898438 83.277344 C 835.933594 83.316406 831.226562 84.152344 827.074219 84.890625 C 823.820312 85.472656 821 85.972656 817.835938 85.972656 " fill-opacity="1" fill-rule="nonzero"/><path fill="#ffffff" d="M 823.109375 84.746094 C 818.78125 84.746094 814.332031 84.019531 807.867188 81.535156 C 801.527344 79.101562 795.191406 74.1875 788.480469 68.988281 C 775.078125 58.597656 759.882812 46.820312 738.207031 48.78125 C 728.628906 49.644531 718.460938 53.179688 706.203125 59.898438 C 704.230469 60.980469 702.289062 62.050781 700.375 63.109375 C 683.0625 72.671875 668.109375 80.929688 653.308594 81.675781 C 638 82.445312 624.234375 77.308594 610.925781 72.339844 C 596.007812 66.769531 580.582031 61.007812 562.40625 63.046875 C 522.316406 67.574219 506.625 83.070312 506.472656 83.226562 L 506.222656 82.980469 C 506.375 82.824219 522.136719 67.242188 562.367188 62.699219 C 580.625 60.652344 596.089844 66.425781 611.046875 72.011719 C 624.9375 77.195312 638.050781 82.09375 653.289062 81.328125 C 668.011719 80.585938 682.929688 72.34375 700.207031 62.800781 C 702.121094 61.746094 704.0625 60.671875 706.035156 59.59375 C 718.335938 52.847656 728.546875 49.300781 738.175781 48.429688 C 759.992188 46.457031 775.242188 58.28125 788.695312 68.710938 C 795.382812 73.894531 801.699219 78.792969 807.992188 81.207031 C 818.296875 85.164062 823.441406 84.632812 831.230469 83.824219 C 834.988281 83.433594 839.246094 82.992188 844.972656 82.953125 L 844.976562 83.300781 C 839.265625 83.34375 835.015625 83.785156 831.265625 84.171875 C 828.308594 84.480469 825.730469 84.746094 823.109375 84.746094 " fill-opacity="1" fill-rule="nonzero"/><path fill="#ffffff" d="M 829.796875 83.871094 C 823.65625 83.871094 818.492188 83.039062 810.183594 79.339844 C 804.246094 76.695312 798.347656 72.101562 792.097656 67.242188 C 778.472656 56.636719 763.023438 44.613281 740.535156 46.882812 C 730.925781 47.851562 720.746094 51.390625 708.5 58.019531 L 706.03125 59.355469 C 687.144531 69.570312 670.828125 78.394531 655.347656 79.324219 C 639.523438 80.269531 625.730469 75.277344 612.394531 70.449219 C 597.707031 65.128906 582.515625 59.628906 564.195312 61.695312 C 522.417969 66.457031 507.019531 83.027344 506.871094 83.191406 L 506.609375 82.957031 C 506.761719 82.789062 522.230469 66.125 564.15625 61.347656 C 582.558594 59.269531 597.785156 64.785156 612.515625 70.117188 C 625.816406 74.9375 639.578125 79.917969 655.324219 78.972656 C 670.730469 78.046875 687.011719 69.242188 705.867188 59.046875 L 708.332031 57.710938 C 720.621094 51.058594 730.84375 47.507812 740.5 46.53125 C 763.132812 44.25 778.632812 56.316406 792.3125 66.964844 C 798.542969 71.8125 804.429688 76.394531 810.324219 79.019531 C 821.511719 84 826.96875 83.75 836.882812 83.296875 C 839.800781 83.164062 843.109375 83.011719 847.046875 82.980469 L 847.050781 83.328125 C 843.121094 83.363281 839.816406 83.515625 836.898438 83.648438 C 834.285156 83.765625 831.980469 83.871094 829.796875 83.871094 " fill-opacity="1" fill-rule="nonzero"/><path fill="#ffffff" d="M 839.503906 83.457031 C 829.507812 83.457031 823.332031 82.664062 812.5 77.140625 C 807.027344 74.351562 801.613281 70.105469 795.882812 65.605469 C 782.003906 54.714844 766.269531 42.375 742.867188 44.984375 C 733.214844 46.058594 723.023438 49.605469 710.796875 56.140625 C 688.507812 68.027344 672.75 75.898438 657.386719 76.96875 C 641.039062 78.109375 627.230469 73.257812 613.871094 68.570312 C 599.40625 63.496094 584.449219 58.246094 565.988281 60.347656 C 522.523438 65.335938 507.417969 82.980469 507.269531 83.160156 L 507 82.933594 C 507.148438 82.757812 522.324219 65.007812 565.949219 60 C 584.488281 57.886719 599.484375 63.152344 613.988281 68.242188 C 627.3125 72.917969 641.089844 77.753906 657.363281 76.621094 C 672.65625 75.554688 688.382812 67.695312 710.628906 55.832031 C 722.898438 49.273438 733.128906 45.714844 742.828125 44.632812 C 766.378906 42.007812 782.167969 54.398438 796.097656 65.332031 C 801.816406 69.816406 807.21875 74.054688 812.660156 76.828125 C 825.394531 83.324219 831.671875 83.238281 845.425781 83.050781 C 846.601562 83.035156 847.832031 83.019531 849.125 83.003906 L 849.128906 83.355469 C 847.835938 83.367188 846.605469 83.386719 845.429688 83.402344 C 843.292969 83.429688 841.335938 83.457031 839.503906 83.457031 " fill-opacity="1" fill-rule="nonzero"/><path fill="#ffffff" d="M 847.886719 83.402344 C 833.695312 83.402344 826.980469 81.976562 814.820312 74.945312 C 809.882812 72.089844 805.023438 68.222656 799.875 64.128906 C 785.710938 52.863281 769.65625 40.097656 745.195312 43.082031 C 735.621094 44.253906 725.121094 47.910156 713.089844 54.261719 C 690.308594 66.265625 674.222656 73.441406 659.425781 74.617188 C 642.554688 75.953125 628.726562 71.253906 615.351562 66.710938 C 601.105469 61.867188 586.371094 56.863281 567.777344 59 C 522.605469 64.222656 507.8125 82.933594 507.667969 83.125 L 507.390625 82.910156 C 507.425781 82.863281 511.132812 78.097656 520.390625 72.753906 C 528.925781 67.832031 544.066406 61.386719 567.738281 58.652344 C 586.414062 56.507812 601.183594 61.523438 615.464844 66.378906 C 628.804688 70.910156 642.597656 75.597656 659.398438 74.265625 C 674.136719 73.097656 690.183594 65.933594 712.925781 53.949219 C 724.996094 47.578125 735.535156 43.910156 745.152344 42.734375 C 769.757812 39.730469 785.875 52.546875 800.09375 63.855469 C 805.230469 67.941406 810.082031 71.800781 814.992188 74.640625 C 827.992188 82.15625 834.746094 83.234375 851.199219 83.03125 L 851.203125 83.378906 C 850.054688 83.394531 848.949219 83.402344 847.886719 83.402344 " fill-opacity="1" fill-rule="nonzero"/><path fill="#ffffff" d="M 851.5 83.417969 C 837.613281 83.421875 829.644531 80.890625 817.136719 72.746094 C 812.832031 69.941406 808.601562 66.507812 804.125 62.871094 C 789.632812 51.105469 773.207031 37.765625 747.527344 41.183594 C 737.882812 42.46875 727.371094 46.128906 715.386719 52.378906 C 697.234375 61.832031 678.140625 70.78125 661.464844 72.261719 C 644.0625 73.804688 630.222656 69.257812 616.835938 64.859375 C 602.804688 60.25 588.296875 55.484375 569.570312 57.652344 C 545.089844 60.5 529.667969 67.265625 521.042969 72.441406 C 511.703125 78.042969 508.101562 83.039062 508.066406 83.089844 L 507.78125 82.886719 C 507.816406 82.835938 511.445312 77.796875 520.839844 72.152344 C 529.496094 66.957031 544.96875 60.160156 569.527344 57.304688 C 588.332031 55.125 602.878906 59.90625 616.945312 64.527344 C 630.296875 68.914062 644.097656 73.453125 661.433594 71.914062 C 678.046875 70.4375 697.105469 61.503906 715.222656 52.070312 C 727.246094 45.800781 737.796875 42.125 747.480469 40.839844 C 773.316406 37.398438 789.796875 50.789062 804.34375 62.601562 C 808.816406 66.230469 813.039062 69.660156 817.328125 72.453125 C 830.289062 80.890625 838.347656 83.269531 853.277344 83.054688 L 853.28125 83.40625 C 852.675781 83.414062 852.082031 83.417969 851.5 83.417969 " fill-opacity="1" fill-rule="nonzero"/><path fill="#ffffff" d="M 854.15625 83.441406 C 839.8125 83.441406 831.125 79.054688 819.453125 70.546875 C 815.886719 67.945312 812.386719 65.019531 808.683594 61.921875 C 793.820312 49.480469 776.972656 35.378906 749.855469 39.285156 C 740.132812 40.6875 729.605469 44.355469 717.679688 50.5 C 694.296875 62.539062 677.585938 68.523438 663.503906 69.90625 C 645.5625 71.671875 631.714844 67.277344 618.324219 63.027344 C 604.507812 58.640625 590.214844 54.101562 571.359375 56.300781 C 545.996094 59.269531 530.246094 66.386719 521.496094 71.835938 C 512.023438 77.738281 508.5 83.003906 508.464844 83.054688 L 508.171875 82.863281 C 508.207031 82.808594 511.757812 77.492188 521.289062 71.554688 C 530.066406 66.082031 545.875 58.933594 571.316406 55.953125 C 590.253906 53.746094 604.578125 58.292969 618.429688 62.691406 C 631.789062 66.933594 645.597656 71.316406 663.46875 69.558594 C 677.507812 68.179688 694.175781 62.207031 717.519531 50.1875 C 729.484375 44.023438 740.042969 40.34375 749.804688 38.9375 C 777.082031 35.011719 793.992188 49.164062 808.910156 61.652344 C 812.609375 64.746094 816.101562 67.671875 819.660156 70.265625 C 831.589844 78.960938 840.371094 83.328125 855.351562 83.082031 L 855.355469 83.433594 C 854.953125 83.4375 854.550781 83.441406 854.15625 83.441406 " fill-opacity="1" fill-rule="nonzero"/><path fill="#ffffff" d="M 856.5 83.46875 C 843.042969 83.46875 833.523438 77.898438 821.773438 68.351562 C 819.0625 66.148438 816.410156 63.832031 813.605469 61.378906 C 798.316406 48.015625 780.992188 32.875 752.183594 37.386719 C 742.398438 38.890625 731.863281 42.566406 719.976562 48.621094 C 697.765625 59.925781 680.46875 65.945312 665.542969 67.554688 C 647.058594 69.550781 633.210938 65.308594 619.816406 61.203125 C 606.203125 57.035156 592.128906 52.722656 573.148438 54.953125 C 546.886719 58.042969 530.796875 65.519531 521.925781 71.25 C 512.328125 77.445312 508.894531 82.964844 508.859375 83.019531 L 508.5625 82.839844 C 508.597656 82.78125 512.070312 77.191406 521.734375 70.953125 C 530.636719 65.207031 546.777344 57.703125 573.109375 54.605469 C 592.160156 52.367188 606.273438 56.691406 619.917969 60.871094 C 633.277344 64.960938 647.09375 69.195312 665.507812 67.207031 C 680.386719 65.601562 697.644531 59.59375 719.820312 48.308594 C 731.738281 42.238281 742.308594 38.550781 752.128906 37.039062 C 781.097656 32.503906 798.492188 47.703125 813.835938 61.113281 C 816.640625 63.566406 819.289062 65.878906 821.992188 68.078125 C 833.953125 77.792969 843.570312 83.375 857.425781 83.109375 L 857.433594 83.457031 C 857.121094 83.464844 856.808594 83.46875 856.5 83.46875 " fill-opacity="1" fill-rule="nonzero"/><g clip-path="url(#a57582bdf2)"><path fill="#ffffff" d="M 858.742188 83.492188 C 842.769531 83.492188 831.234375 72.804688 819.027344 61.496094 C 798.214844 42.222656 774.628906 20.378906 722.273438 46.742188 C 698.425781 58.746094 678.328125 64.964844 660.828125 65.753906 C 645.214844 66.457031 633.058594 62.867188 621.308594 59.398438 C 607.902344 55.4375 594.039062 51.347656 574.941406 53.605469 C 547.8125 56.8125 531.398438 64.632812 522.402344 70.628906 C 512.664062 77.121094 509.289062 82.929688 509.257812 82.988281 L 508.953125 82.8125 C 508.988281 82.753906 512.386719 76.890625 522.183594 70.355469 C 531.210938 64.332031 547.683594 56.476562 574.898438 53.257812 C 594.070312 50.988281 607.96875 55.09375 621.40625 59.0625 C 644.84375 65.980469 669.074219 73.132812 722.113281 46.425781 C 774.691406 19.957031 798.371094 41.890625 819.265625 61.242188 C 831.609375 72.675781 843.269531 83.492188 859.5 83.132812 L 859.507812 83.484375 C 859.253906 83.488281 858.996094 83.492188 858.742188 83.492188 " fill-opacity="1" fill-rule="nonzero"/></g><g clip-path="url(#f14507bece)"><path fill="#ffffff" d="M 832.417969 83.484375 L 498.011719 83.484375 L 498.011719 83.132812 L 832.417969 83.132812 L 832.417969 83.484375 " fill-opacity="1" fill-rule="nonzero"/></g><g clip-path="url(#a3d908e803)"><path fill="#ffffff" d="M 602.765625 85.300781 C 601.917969 85.300781 601.367188 85.273438 601.191406 85.207031 C 600.082031 84.8125 583.652344 83.347656 566.058594 82.203125 C 545.074219 80.835938 532.101562 80.554688 531.347656 81.453125 C 530.128906 82.90625 501.683594 83.449219 498.445312 83.507812 L 498.4375 83.15625 C 511.097656 82.933594 530.234375 82.238281 531.078125 81.230469 C 532.164062 79.933594 550.710938 80.851562 566.082031 81.851562 C 582.285156 82.90625 600.0625 84.433594 601.308594 84.878906 C 602.269531 85.222656 617.589844 84.382812 640.34375 82.742188 C 660.453125 81.292969 678.3125 79.796875 679.339844 79.472656 C 680.527344 79.101562 696.941406 80.296875 711.90625 81.542969 C 726.816406 82.78125 743.09375 84.304688 743.890625 84.683594 C 744.878906 85.15625 768.191406 83.605469 780.714844 82.773438 C 786.667969 82.375 790.976562 82.082031 791.492188 82.101562 C 791.953125 82.109375 795.066406 82.1875 799.410156 82.296875 C 810.664062 82.578125 831.609375 83.101562 833.550781 83.101562 L 833.550781 83.449219 C 831.605469 83.449219 811.445312 82.945312 799.402344 82.644531 C 795.058594 82.539062 791.949219 82.460938 791.488281 82.449219 C 791.476562 82.449219 791.46875 82.449219 791.460938 82.449219 C 790.839844 82.449219 786.371094 82.746094 780.738281 83.121094 C 762.558594 84.332031 744.730469 85.46875 743.742188 85 C 741.945312 84.144531 681.25 79.242188 679.445312 79.808594 C 678.25 80.183594 658.230469 81.804688 640.371094 83.09375 C 632.59375 83.652344 609.179688 85.300781 602.765625 85.300781 " fill-opacity="1" fill-rule="nonzero"/></g><g clip-path="url(#be405d16a1)"><path fill="#ffffff" d="M 604.15625 87.132812 C 603.15625 87.132812 602.453125 87.074219 602.085938 86.941406 C 599.828125 86.136719 583.625 83.1875 566.726562 80.917969 C 546.277344 78.175781 533.671875 77.652344 532.132812 79.488281 C 529.710938 82.378906 500.132812 83.484375 498.875 83.527344 L 498.863281 83.179688 C 499.167969 83.167969 529.539062 82.039062 531.867188 79.261719 C 533.964844 76.753906 552.007812 78.589844 566.773438 80.570312 C 583.695312 82.839844 599.933594 85.800781 602.203125 86.613281 C 606.917969 88.292969 676.371094 76.96875 680.082031 75.804688 C 682.84375 74.941406 703.574219 78.417969 712.359375 79.953125 C 727.453125 82.589844 741.980469 85.519531 743.449219 86.21875 C 745.3125 87.105469 763.644531 84.632812 777.03125 82.828125 C 784.429688 81.832031 790.285156 81.046875 791.480469 81.066406 C 792.792969 81.09375 798.824219 81.402344 805.808594 81.757812 C 817.214844 82.339844 831.410156 83.066406 834.683594 83.066406 L 834.683594 83.417969 C 831.398438 83.417969 817.199219 82.691406 805.789062 82.109375 C 798.808594 81.75 792.78125 81.441406 791.472656 81.417969 C 791.457031 81.417969 791.4375 81.417969 791.417969 81.417969 C 790.125 81.417969 784.355469 82.195312 777.078125 83.175781 C 762.898438 85.085938 745.25 87.464844 743.300781 86.535156 C 740.828125 85.355469 684.777344 74.699219 680.183594 76.140625 C 676.566406 77.273438 616.84375 87.132812 604.15625 87.132812 " fill-opacity="1" fill-rule="nonzero"/></g><path fill="#ffffff" d="M 605.296875 88.9375 C 604.269531 88.9375 603.484375 88.855469 602.984375 88.675781 C 594.785156 85.75 538.472656 70.890625 532.921875 77.519531 C 529.3125 81.828125 500.53125 83.484375 499.308594 83.550781 L 499.289062 83.199219 C 499.585938 83.183594 529.140625 81.488281 532.652344 77.292969 C 538.503906 70.304688 597.285156 86.269531 603.101562 88.347656 C 610.007812 90.808594 673.214844 74.519531 680.820312 72.136719 C 687.800781 69.957031 738.976562 85.828125 743.007812 87.753906 C 745.675781 89.027344 761.675781 85.726562 774.535156 83.078125 C 782.5625 81.421875 789.480469 79.996094 791.464844 80.03125 C 793.558594 80.074219 800.011719 80.582031 807.480469 81.171875 C 818 82 831.09375 83.035156 835.820312 83.035156 L 835.820312 83.382812 C 831.082031 83.382812 817.980469 82.351562 807.453125 81.519531 C 799.988281 80.933594 793.542969 80.421875 791.460938 80.382812 C 789.53125 80.34375 782.613281 81.769531 774.605469 83.421875 C 761.027344 86.21875 745.628906 89.390625 742.859375 88.070312 C 738.488281 85.984375 687.484375 70.417969 680.925781 72.472656 C 675.960938 74.027344 619.023438 88.9375 605.296875 88.9375 " fill-opacity="1" fill-rule="nonzero"/><path fill="#ffffff" d="M 606.574219 90.757812 C 605.453125 90.757812 604.542969 90.648438 603.878906 90.410156 C 603.148438 90.148438 602.140625 89.78125 600.910156 89.328125 C 593.664062 86.675781 578.589844 81.15625 564.433594 77.339844 C 546.992188 72.640625 536.652344 72.035156 533.707031 75.550781 C 528.914062 81.277344 500.929688 83.480469 499.738281 83.574219 L 499.710938 83.222656 C 500.003906 83.203125 528.738281 80.941406 533.441406 75.328125 C 540.542969 66.847656 586.070312 83.519531 601.03125 89 C 602.261719 89.449219 603.265625 89.820312 604 90.082031 C 611.605469 92.796875 652.707031 78.472656 672.457031 71.585938 C 676.8125 70.070312 679.957031 68.972656 681.5625 68.46875 C 690.226562 65.757812 734.257812 85.324219 742.566406 89.285156 C 746.007812 90.925781 760.171875 86.949219 772.671875 83.441406 C 781.257812 81.027344 788.675781 78.941406 791.453125 79 C 794.316406 79.054688 800.835938 79.761719 808.386719 80.578125 C 818.875 81.714844 830.765625 83 836.953125 83 L 836.953125 83.351562 C 830.746094 83.351562 818.847656 82.0625 808.347656 80.925781 C 800.804688 80.109375 794.292969 79.40625 791.445312 79.347656 C 788.738281 79.300781 780.972656 81.472656 772.765625 83.777344 C 760.207031 87.304688 745.976562 91.300781 742.417969 89.601562 C 734.128906 85.648438 690.222656 66.121094 681.667969 68.804688 C 680.066406 69.304688 676.757812 70.457031 672.570312 71.917969 C 654.480469 78.222656 618.519531 90.757812 606.574219 90.757812 " fill-opacity="1" fill-rule="nonzero"/><path fill="#ffffff" d="M 607.839844 92.574219 C 606.625 92.574219 605.597656 92.4375 604.777344 92.144531 C 602.417969 91.300781 598.597656 89.613281 593.757812 87.472656 C 575.675781 79.480469 542.015625 64.605469 534.496094 73.585938 C 528.515625 80.726562 501.324219 83.480469 500.171875 83.59375 L 500.136719 83.246094 C 500.417969 83.21875 528.335938 80.390625 534.226562 73.359375 C 541.917969 64.175781 574.457031 78.558594 593.898438 87.152344 C 598.730469 89.289062 602.546875 90.976562 604.894531 91.8125 C 613.230469 94.789062 644.097656 81.210938 664.519531 72.226562 C 672.699219 68.628906 679.160156 65.785156 682.304688 64.800781 C 691.234375 62.003906 718.910156 77.75 733.777344 86.210938 C 737.59375 88.382812 740.609375 90.097656 742.125 90.820312 C 746.3125 92.820312 759.53125 88.066406 771.195312 83.875 C 779.648438 80.835938 787.640625 77.964844 791.308594 77.964844 C 791.351562 77.964844 791.398438 77.964844 791.441406 77.964844 C 795.070312 78.035156 801.535156 78.9375 809.023438 79.984375 C 819.058594 81.382812 830.429688 82.96875 838.085938 82.96875 L 838.085938 83.316406 C 830.40625 83.316406 819.023438 81.730469 808.976562 80.328125 C 801.5 79.285156 795.039062 78.386719 791.433594 78.316406 C 791.390625 78.316406 791.347656 78.3125 791.304688 78.3125 C 787.699219 78.3125 779.738281 81.175781 771.3125 84.207031 C 759.015625 88.625 746.292969 93.199219 741.972656 91.136719 C 740.449219 90.410156 737.425781 88.691406 733.601562 86.511719 C 718.78125 78.082031 691.199219 62.382812 682.410156 65.136719 C 679.285156 66.113281 672.832031 68.953125 664.664062 72.546875 C 646.167969 80.683594 619.136719 92.574219 607.839844 92.574219 " fill-opacity="1" fill-rule="nonzero"/><path fill="#ffffff" d="M 609.179688 94.402344 C 607.851562 94.402344 606.675781 94.234375 605.671875 93.878906 C 602.019531 92.574219 596.25 89.511719 589.5625 85.96875 C 570.1875 75.695312 543.652344 61.625 535.285156 71.617188 C 528.117188 80.175781 500.878906 83.582031 500.601562 83.617188 L 500.5625 83.269531 C 500.832031 83.234375 527.9375 79.84375 535.015625 71.390625 C 543.566406 61.183594 570.246094 75.328125 589.726562 85.660156 C 596.402344 89.199219 602.164062 92.253906 605.792969 93.546875 C 615.101562 96.875 640.222656 83.285156 660.40625 72.371094 C 670.171875 67.085938 678.605469 62.523438 683.046875 61.132812 C 692.789062 58.082031 714.5625 73.601562 728.96875 83.867188 C 734.703125 87.957031 739.234375 91.1875 741.683594 92.355469 C 746.609375 94.703125 758.488281 89.445312 769.976562 84.363281 C 778.613281 80.542969 786.773438 76.929688 791.269531 76.929688 C 791.320312 76.929688 791.375 76.929688 791.425781 76.933594 C 795.820312 77.019531 802.175781 78.113281 809.539062 79.386719 C 819.175781 81.046875 830.097656 82.933594 839.222656 82.933594 L 839.222656 83.285156 C 830.066406 83.285156 819.128906 81.394531 809.476562 79.730469 C 802.132812 78.460938 795.789062 77.367188 791.417969 77.28125 C 791.371094 77.28125 791.316406 77.28125 791.265625 77.28125 C 786.851562 77.28125 778.71875 80.878906 770.117188 84.683594 C 758.554688 89.800781 746.597656 95.085938 741.53125 92.671875 C 739.054688 91.488281 734.515625 88.253906 728.765625 84.152344 C 714.414062 73.925781 692.730469 58.46875 683.152344 61.46875 C 678.742188 62.847656 670.320312 67.402344 660.574219 72.675781 C 642.472656 82.46875 620.410156 94.402344 609.179688 94.402344 " fill-opacity="1" fill-rule="nonzero"/><path fill="#ffffff" d="M 610.488281 96.226562 C 609.054688 96.226562 607.742188 96.03125 606.570312 95.613281 C 601.671875 93.863281 594.730469 89.519531 586.695312 84.488281 C 568.265625 72.953125 545.328125 58.597656 536.070312 69.648438 C 527.71875 79.621094 501.300781 83.597656 501.035156 83.636719 L 500.984375 83.292969 C 501.25 83.253906 527.535156 79.296875 535.800781 69.425781 C 545.253906 58.140625 568.335938 72.585938 586.878906 84.191406 C 594.898438 89.210938 601.824219 93.546875 606.6875 95.28125 C 617.042969 98.980469 639.722656 84.222656 657.945312 72.363281 C 668.765625 65.324219 678.109375 59.246094 683.789062 57.464844 C 694.523438 54.105469 712.789062 70.175781 726.132812 81.910156 C 732.484375 87.5 737.976562 92.332031 741.242188 93.890625 C 746.886719 96.582031 758.097656 90.636719 768.941406 84.886719 C 777.65625 80.265625 785.898438 75.894531 791.226562 75.894531 C 791.289062 75.894531 791.351562 75.898438 791.414062 75.898438 C 796.574219 76 802.789062 77.292969 809.984375 78.789062 C 819.253906 80.714844 829.757812 82.902344 840.355469 82.902344 L 840.355469 83.25 C 829.722656 83.25 819.199219 81.0625 809.914062 79.132812 C 802.734375 77.636719 796.53125 76.347656 791.40625 76.25 C 786.195312 76.140625 777.882812 80.542969 769.105469 85.195312 C 760.078125 89.980469 750.800781 94.902344 744.574219 94.902344 C 743.269531 94.902344 742.097656 94.683594 741.089844 94.203125 C 737.78125 92.625 732.273438 87.78125 725.898438 82.171875 C 712.621094 70.492188 694.4375 54.496094 683.894531 57.800781 C 678.261719 59.5625 668.9375 65.632812 658.140625 72.65625 C 641.042969 83.78125 621.917969 96.226562 610.488281 96.226562 " fill-opacity="1" fill-rule="nonzero"/><path fill="#ffffff" d="M 611.710938 98.035156 C 610.199219 98.035156 608.78125 97.816406 607.46875 97.347656 C 601.328125 95.152344 593.210938 89.238281 584.617188 82.980469 C 566.984375 70.132812 547.003906 55.570312 536.859375 67.683594 C 527.320312 79.070312 501.726562 83.613281 501.46875 83.660156 L 501.40625 83.3125 C 501.664062 83.269531 527.132812 78.746094 536.589844 67.457031 C 546.945312 55.09375 567.070312 69.757812 584.824219 82.695312 C 593.394531 88.941406 601.492188 94.839844 607.585938 97.015625 C 619.011719 101.09375 638.878906 85.796875 656.410156 72.300781 C 667.328125 63.894531 677.640625 55.957031 684.53125 53.796875 C 696.316406 50.105469 711.816406 66.738281 724.273438 80.101562 C 730.96875 87.285156 736.757812 93.492188 740.800781 95.421875 C 747.15625 98.457031 757.773438 91.839844 768.039062 85.4375 C 776.386719 80.238281 785.011719 74.863281 791.195312 74.863281 C 791.261719 74.863281 791.332031 74.863281 791.402344 74.863281 C 797.324219 74.980469 803.671875 76.539062 810.390625 78.191406 C 819.3125 80.382812 829.421875 82.867188 841.492188 82.867188 L 841.492188 83.21875 C 829.378906 83.21875 819.246094 80.726562 810.308594 78.53125 C 803.316406 76.8125 797.277344 75.328125 791.394531 75.214844 C 785.292969 75.089844 776.621094 80.503906 768.226562 85.734375 C 759.6875 91.058594 750.90625 96.527344 744.429688 96.527344 C 743.058594 96.527344 741.789062 96.28125 740.648438 95.738281 C 736.542969 93.78125 730.738281 87.550781 724.015625 80.339844 C 711.625 67.046875 696.207031 50.507812 684.636719 54.132812 C 677.804688 56.273438 667.515625 64.191406 656.625 72.578125 C 641.015625 84.59375 623.554688 98.035156 611.710938 98.035156 " fill-opacity="1" fill-rule="nonzero"/><path fill="#ffffff" d="M 613.074219 99.867188 C 611.441406 99.867188 609.867188 99.617188 608.363281 99.082031 C 600.972656 96.441406 592.277344 89.148438 583.078125 81.425781 C 570.371094 70.761719 557.226562 59.738281 546.796875 60.648438 C 543.230469 60.960938 540.238281 62.621094 537.644531 65.714844 C 526.921875 78.519531 502.148438 83.632812 501.902344 83.679688 L 501.832031 83.335938 C 502.078125 83.289062 526.730469 78.199219 537.378906 65.488281 C 539.996094 62.363281 543.15625 60.617188 546.765625 60.300781 C 557.351562 59.375 570.539062 70.445312 583.304688 81.15625 C 592.480469 88.859375 601.148438 96.132812 608.480469 98.75 C 620.980469 103.210938 638.503906 87.449219 655.453125 72.207031 C 666.625 62.15625 677.179688 52.664062 685.273438 50.128906 C 698.136719 46.101562 711.34375 63.242188 722.996094 78.363281 C 729.453125 86.746094 735.554688 94.664062 740.359375 96.957031 C 747.417969 100.324219 757.496094 93.050781 767.242188 86.011719 C 775.539062 80.023438 784.121094 73.828125 791.15625 73.828125 C 791.230469 73.828125 791.308594 73.828125 791.386719 73.832031 C 798.074219 73.960938 804.242188 75.726562 810.769531 77.59375 C 819.355469 80.050781 829.082031 82.832031 842.625 82.832031 L 842.625 83.183594 C 829.035156 83.183594 819.28125 80.394531 810.671875 77.929688 C 804.167969 76.070312 798.019531 74.3125 791.378906 74.179688 C 784.410156 74.023438 775.789062 80.273438 767.445312 86.296875 C 759.023438 92.375 750.984375 98.179688 744.371094 98.179688 C 742.910156 98.179688 741.519531 97.898438 740.207031 97.273438 C 735.328125 94.945312 729.484375 87.359375 722.71875 78.578125 C 711.136719 63.546875 698.003906 46.507812 685.378906 50.464844 C 677.355469 52.976562 666.832031 62.445312 655.6875 72.464844 C 640.683594 85.964844 625.222656 99.867188 613.074219 99.867188 " fill-opacity="1" fill-rule="nonzero"/><path fill="#ffffff" d="M 614.320312 101.679688 C 612.601562 101.679688 610.914062 101.40625 609.261719 100.8125 C 600.601562 97.722656 591.109375 88.625 581.929688 79.824219 C 570.488281 68.859375 558.667969 57.527344 548.613281 58.074219 C 544.785156 58.28125 541.457031 60.136719 538.433594 63.746094 C 526.523438 77.964844 502.574219 83.644531 502.335938 83.703125 L 502.253906 83.359375 C 502.492188 83.304688 526.332031 77.652344 538.164062 63.523438 C 541.253906 59.835938 544.664062 57.9375 548.59375 57.722656 C 558.789062 57.160156 570.675781 68.554688 582.167969 79.574219 C 591.324219 88.347656 600.792969 97.417969 609.378906 100.484375 C 622.964844 105.335938 639.191406 88.4375 654.890625 72.097656 C 666.117188 60.410156 676.722656 49.371094 686.015625 46.460938 C 699.96875 42.089844 711.726562 60.460938 722.097656 76.671875 C 728.40625 86.527344 734.363281 95.839844 739.914062 98.492188 C 747.675781 102.191406 756.828125 94.621094 766.519531 86.605469 C 774.820312 79.738281 783.417969 72.644531 791.375 72.796875 C 798.824219 72.941406 804.800781 74.914062 811.128906 76.996094 C 819.386719 79.71875 828.746094 82.800781 843.757812 82.800781 L 843.757812 83.152344 C 828.6875 83.152344 819.300781 80.058594 811.019531 77.328125 C 804.71875 75.253906 798.765625 73.292969 791.367188 73.148438 C 791.28125 73.144531 791.199219 73.144531 791.113281 73.144531 C 783.34375 73.144531 774.90625 80.121094 766.746094 86.875 C 756.964844 94.964844 747.722656 102.605469 739.765625 98.804688 C 734.121094 96.113281 728.136719 86.761719 721.800781 76.859375 C 711.496094 60.753906 699.820312 42.5 686.121094 46.796875 C 676.914062 49.679688 666.339844 60.6875 655.144531 72.339844 C 641.257812 86.792969 626.957031 101.679688 614.320312 101.679688 " fill-opacity="1" fill-rule="nonzero"/><path fill="#ffffff" d="M 615.570312 103.492188 C 613.761719 103.492188 611.957031 103.191406 610.15625 102.546875 C 600.222656 99 590.488281 88.417969 581.074219 78.183594 C 570.242188 66.410156 560.003906 55.292969 550.347656 55.511719 C 546.3125 55.605469 542.671875 57.65625 539.21875 61.78125 C 526.125 77.414062 503 83.660156 502.765625 83.722656 L 502.675781 83.382812 C 502.910156 83.324219 525.929688 77.101562 538.953125 61.554688 C 542.472656 57.351562 546.199219 55.257812 550.339844 55.164062 C 550.4375 55.160156 550.539062 55.160156 550.636719 55.160156 C 560.371094 55.160156 570.554688 66.230469 581.332031 77.945312 C 590.71875 88.148438 600.421875 98.699219 610.273438 102.21875 C 624.941406 107.453125 640.023438 89.421875 654.609375 71.980469 C 665.75 58.660156 676.269531 46.078125 686.757812 42.792969 C 701.816406 38.074219 712.25 57.691406 721.460938 75 C 727.484375 86.324219 733.175781 97.019531 739.472656 100.023438 C 747.929688 104.058594 756.640625 95.875 765.867188 87.210938 C 773.953125 79.613281 782.316406 71.761719 791.074219 71.761719 C 791.167969 71.761719 791.265625 71.761719 791.359375 71.761719 C 799.574219 71.925781 805.355469 74.097656 811.476562 76.398438 C 819.414062 79.386719 828.40625 82.765625 844.894531 82.765625 L 844.894531 83.117188 C 828.34375 83.117188 819.316406 79.722656 811.355469 76.726562 C 805.261719 74.4375 799.507812 72.273438 791.355469 72.113281 C 791.261719 72.113281 791.167969 72.109375 791.074219 72.109375 C 782.453125 72.109375 774.144531 79.914062 766.105469 87.464844 C 756.789062 96.214844 747.992188 104.476562 739.324219 100.339844 C 732.921875 97.285156 727.207031 86.542969 721.152344 75.164062 C 712.007812 57.976562 701.644531 38.496094 686.859375 43.128906 C 676.472656 46.382812 665.496094 59.507812 654.878906 72.203125 C 641.992188 87.617188 628.714844 103.488281 615.570312 103.492188 " fill-opacity="1" fill-rule="nonzero"/><path fill="#ffffff" d="M 616.824219 105.304688 C 614.925781 105.304688 613.003906 104.980469 611.054688 104.28125 C 599.828125 100.273438 589.980469 88.191406 580.453125 76.503906 C 570.613281 64.429688 561.320312 53.027344 552.011719 52.964844 C 551.988281 52.964844 551.960938 52.964844 551.933594 52.964844 C 547.765625 52.964844 543.867188 55.207031 540.007812 59.8125 C 525.726562 76.863281 503.425781 83.675781 503.199219 83.742188 L 503.101562 83.40625 C 503.324219 83.339844 525.527344 76.554688 539.738281 59.585938 C 543.667969 54.898438 547.65625 52.617188 551.933594 52.617188 C 551.960938 52.617188 551.988281 52.617188 552.015625 52.617188 C 561.488281 52.679688 570.832031 64.144531 580.726562 76.28125 C 590.21875 87.929688 600.039062 99.976562 611.171875 103.953125 C 626.925781 109.578125 640.964844 90.402344 654.539062 71.859375 C 665 57.566406 675.820312 42.785156 687.496094 39.125 C 694.742188 36.855469 701.191406 39.523438 707.214844 47.273438 C 712.507812 54.085938 716.832031 63.878906 721.015625 73.347656 C 726.660156 86.128906 731.992188 98.199219 739.03125 101.558594 C 748.179688 105.921875 756.476562 97.132812 765.261719 87.828125 C 773.289062 79.328125 781.601562 70.554688 791.347656 70.730469 C 800.328125 70.90625 805.90625 73.285156 811.816406 75.804688 C 819.433594 79.050781 828.070312 82.734375 846.027344 82.734375 L 846.027344 83.085938 C 827.996094 83.085938 819.328125 79.386719 811.679688 76.125 C 805.800781 73.621094 800.25 71.253906 791.339844 71.078125 C 791.238281 71.078125 791.136719 71.078125 791.035156 71.078125 C 781.558594 71.078125 773.40625 79.710938 765.515625 88.066406 C 756.640625 97.46875 748.253906 106.347656 738.882812 101.875 C 731.726562 98.460938 726.367188 86.332031 720.695312 73.488281 C 712.226562 54.3125 703.46875 34.488281 687.601562 39.460938 C 676.035156 43.082031 665.25 57.816406 654.820312 72.066406 C 642.835938 88.4375 630.488281 105.300781 616.824219 105.304688 " fill-opacity="1" fill-rule="nonzero"/><path fill="#ffffff" d="M 618.121094 107.125 C 616.070312 107.125 614.015625 106.753906 611.949219 106.015625 C 599.421875 101.542969 589.117188 87.328125 580.023438 74.789062 C 571.058594 62.421875 562.589844 50.742188 553.613281 50.429688 C 549.308594 50.289062 545.101562 52.703125 540.796875 57.84375 C 525.328125 76.308594 503.851562 83.691406 503.636719 83.765625 L 503.523438 83.433594 C 503.738281 83.359375 525.125 76.007812 540.527344 57.621094 C 544.90625 52.390625 549.199219 49.925781 553.625 50.082031 C 562.773438 50.398438 571.289062 62.144531 580.304688 74.582031 C 589.371094 87.082031 599.640625 101.25 612.066406 105.6875 C 628.917969 111.699219 641.402344 92.289062 654.625 71.734375 C 664.824219 55.882812 675.371094 39.488281 688.238281 35.457031 C 705.515625 30.042969 713.242188 51.222656 720.714844 71.703125 C 725.90625 85.9375 730.8125 99.382812 738.589844 103.09375 C 748.425781 107.78125 756.332031 98.394531 764.699219 88.453125 C 772.550781 79.128906 780.664062 69.496094 791.332031 69.695312 C 801.078125 69.886719 806.453125 72.472656 812.144531 75.207031 C 819.453125 78.71875 827.730469 82.699219 847.160156 82.699219 L 847.160156 83.050781 C 827.652344 83.050781 819.332031 79.050781 811.996094 75.523438 C 806.335938 72.804688 800.996094 70.234375 791.328125 70.046875 C 780.847656 69.828125 772.769531 79.417969 764.96875 88.675781 C 758.070312 96.871094 751.480469 104.695312 743.820312 104.695312 C 742.085938 104.695312 740.300781 104.296875 738.441406 103.40625 C 730.53125 99.636719 725.601562 86.125 720.386719 71.820312 C 712.96875 51.496094 705.296875 30.480469 688.34375 35.792969 C 675.597656 39.785156 665.085938 56.125 654.917969 71.925781 C 648.542969 81.835938 641.945312 92.085938 634.992188 98.832031 C 629.277344 104.378906 623.707031 107.121094 618.121094 107.125 " fill-opacity="1" fill-rule="nonzero"/><g clip-path="url(#8808603492)"><path fill="#ffffff" d="M 619.515625 108.96875 C 617.386719 108.96875 615.171875 108.578125 612.847656 107.75 C 599.003906 102.808594 588.773438 86.992188 579.746094 73.039062 C 571.207031 59.835938 563.828125 48.433594 555.160156 47.898438 C 550.734375 47.628906 546.304688 50.238281 541.582031 55.878906 C 524.933594 75.757812 504.277344 83.707031 504.070312 83.785156 L 503.945312 83.457031 C 504.152344 83.378906 524.726562 75.460938 541.3125 55.652344 C 546.113281 49.921875 550.65625 47.273438 555.179688 47.550781 C 564.027344 48.09375 571.449219 59.566406 580.042969 72.851562 C 589.035156 86.757812 599.234375 102.519531 612.964844 107.421875 C 630.898438 113.824219 642.527344 93.316406 654.835938 71.609375 C 664.710938 54.199219 674.921875 36.195312 688.980469 31.789062 C 693.558594 30.355469 697.542969 30.59375 701.164062 32.515625 C 710.84375 37.65625 715.765625 54.132812 720.523438 70.066406 C 725.207031 85.75 729.632812 100.5625 738.148438 104.625 C 748.667969 109.644531 756.199219 99.65625 764.175781 89.085938 C 771.75 79.042969 779.585938 68.65625 790.953125 68.65625 C 791.074219 68.65625 791.195312 68.660156 791.320312 68.660156 C 801.828125 68.867188 806.996094 71.65625 812.46875 74.613281 C 819.464844 78.386719 827.394531 82.667969 848.296875 82.667969 L 848.296875 83.015625 C 827.304688 83.015625 819.335938 78.714844 812.304688 74.921875 C 806.871094 71.988281 801.738281 69.214844 791.3125 69.011719 C 779.910156 68.796875 772.058594 79.214844 764.457031 89.296875 C 756.390625 99.988281 748.773438 110.082031 738 104.941406 C 729.34375 100.8125 724.894531 85.925781 720.1875 70.164062 C 715.449219 54.300781 710.550781 37.894531 701 32.824219 C 697.46875 30.949219 693.570312 30.71875 689.085938 32.125 C 675.15625 36.488281 664.980469 54.429688 655.140625 71.78125 C 644.335938 90.835938 634.050781 108.964844 619.515625 108.96875 " fill-opacity="1" fill-rule="nonzero"/></g><g fill="#ffffff" fill-opacity="1"><g transform="translate(60.455297, 224.538512)"><g><path d="M 38.40625 1.03125 C 31.832031 1.03125 26.046875 -0.375 21.046875 -3.1875 C 16.054688 -6.007812 12.195312 -10 9.46875 -15.15625 C 6.738281 -20.320312 5.375 -26.28125 5.375 -33.03125 L 5.375 -56.578125 C 5.375 -63.316406 6.757812 -69.265625 9.53125 -74.421875 C 12.3125 -79.585938 16.238281 -83.578125 21.3125 -86.390625 C 26.382812 -89.210938 32.25 -90.625 38.90625 -90.625 L 52.484375 -90.625 C 58.878906 -90.625 64.507812 -89.257812 69.375 -86.53125 C 74.238281 -83.800781 78.015625 -79.984375 80.703125 -75.078125 C 83.390625 -70.171875 84.734375 -64.472656 84.734375 -57.984375 L 67.328125 -57.984375 C 67.328125 -63.097656 65.960938 -67.210938 63.234375 -70.328125 C 60.503906 -73.453125 56.921875 -75.015625 52.484375 -75.015625 L 38.90625 -75.015625 C 34.132812 -75.015625 30.296875 -73.242188 27.390625 -69.703125 C 24.492188 -66.160156 23.046875 -61.53125 23.046875 -55.8125 L 23.046875 -33.796875 C 23.046875 -28.078125 24.453125 -23.445312 27.265625 -19.90625 C 30.078125 -16.363281 33.789062 -14.59375 38.40625 -14.59375 L 52.21875 -14.59375 C 56.75 -14.59375 60.441406 -16.34375 63.296875 -19.84375 C 66.148438 -23.34375 67.578125 -27.945312 67.578125 -33.65625 L 84.984375 -33.65625 C 84.984375 -26.75 83.617188 -20.671875 80.890625 -15.421875 C 78.160156 -10.171875 74.320312 -6.113281 69.375 -3.25 C 64.425781 -0.394531 58.707031 1.03125 52.21875 1.03125 Z M 38.40625 1.03125 "/></g></g></g><g fill="#ffffff" fill-opacity="1"><g transform="translate(148.517136, 224.538512)"><g><path d="M 29.0625 1.03125 C 22.3125 1.03125 16.890625 -1.25 12.796875 -5.8125 C 8.703125 -10.382812 6.65625 -16.382812 6.65625 -23.8125 L 6.65625 -63.875 L 24.0625 -63.875 L 24.0625 -23.546875 C 24.0625 -20.734375 24.765625 -18.453125 26.171875 -16.703125 C 27.578125 -14.953125 29.4375 -14.078125 31.75 -14.078125 L 39.171875 -14.078125 C 41.984375 -14.078125 44.539062 -15.25 46.84375 -17.59375 C 49.144531 -19.945312 50.769531 -23.039062 51.71875 -26.875 L 51.71875 -63.875 L 69.125 -63.875 L 69.125 0 L 52.984375 0 L 52.984375 -8.1875 C 51.023438 -5.457031 48.613281 -3.238281 45.75 -1.53125 C 42.894531 0.175781 40.144531 1.03125 37.5 1.03125 Z M 29.0625 1.03125 "/></g></g></g><g fill="#ffffff" fill-opacity="1"><g transform="translate(225.059263, 224.538512)"><g><path d="M 30.078125 1.03125 C 22.316406 1.03125 16.085938 -1.015625 11.390625 -5.109375 C 6.703125 -9.210938 4.359375 -14.59375 4.359375 -21.25 L 21.5 -21.25 C 21.5 -18.945312 22.285156 -17.085938 23.859375 -15.671875 C 25.441406 -14.265625 27.515625 -13.5625 30.078125 -13.5625 L 41.59375 -13.5625 C 46.71875 -13.5625 49.28125 -14.972656 49.28125 -17.796875 L 49.28125 -19.96875 C 49.28125 -20.820312 48.851562 -21.609375 48 -22.328125 C 47.144531 -23.054688 45.992188 -23.550781 44.546875 -23.8125 L 22.40625 -27.640625 C 17.195312 -28.492188 13.078125 -30.347656 10.046875 -33.203125 C 7.015625 -36.066406 5.5 -39.421875 5.5 -43.265625 L 5.5 -47.484375 C 5.5 -52.953125 7.738281 -57.21875 12.21875 -60.28125 C 16.695312 -63.351562 22.945312 -64.890625 30.96875 -64.890625 L 40.953125 -64.890625 C 48.128906 -64.890625 53.910156 -62.988281 58.296875 -59.1875 C 62.691406 -55.394531 64.890625 -50.382812 64.890625 -44.15625 L 47.75 -44.15625 C 47.75 -46.03125 47.128906 -47.519531 45.890625 -48.625 C 44.648438 -49.738281 43.003906 -50.296875 40.953125 -50.296875 L 31.234375 -50.296875 C 25.679688 -50.296875 22.90625 -49.019531 22.90625 -46.46875 L 22.90625 -44.421875 C 22.90625 -43.484375 23.269531 -42.691406 24 -42.046875 C 24.726562 -41.410156 25.773438 -40.960938 27.140625 -40.703125 L 50.4375 -36.484375 C 55.300781 -35.628906 59.222656 -33.8125 62.203125 -31.03125 C 65.191406 -28.257812 66.6875 -25.125 66.6875 -21.625 L 66.6875 -17.03125 C 66.6875 -11.476562 64.398438 -7.078125 59.828125 -3.828125 C 55.265625 -0.585938 49.1875 1.03125 41.59375 1.03125 Z M 30.078125 1.03125 "/></g></g></g><g fill="#ffffff" fill-opacity="1"><g transform="translate(295.329533, 224.538512)"><g><path d="M 35.328125 0 C 27.816406 0 22.3125 -1.703125 18.8125 -5.109375 C 15.3125 -8.523438 13.5625 -13.816406 13.5625 -20.984375 L 13.5625 -49.03125 L 2.296875 -49.03125 L 2.296875 -63.875 L 14.078125 -63.875 L 14.078125 -83.203125 L 30.96875 -83.203125 L 30.96875 -63.875 L 47.609375 -63.875 L 47.609375 -49.03125 L 30.96875 -49.03125 L 30.96875 -21.765625 C 30.96875 -19.367188 31.414062 -17.613281 32.3125 -16.5 C 33.207031 -15.394531 34.640625 -14.84375 36.609375 -14.84375 L 47.609375 -14.84375 L 47.609375 0 Z M 35.328125 0 "/></g></g></g><g fill="#ffffff" fill-opacity="1"><g transform="translate(347.808252, 224.538512)"><g><path d="M 32.125 1.03125 C 26.75 1.03125 21.988281 -0.015625 17.84375 -2.109375 C 13.707031 -4.203125 10.507812 -7.164062 8.25 -11 C 5.988281 -14.84375 4.859375 -19.28125 4.859375 -24.3125 L 4.859375 -39.296875 C 4.859375 -44.328125 6.007812 -48.785156 8.3125 -52.671875 C 10.625 -56.554688 13.847656 -59.5625 17.984375 -61.6875 C 22.117188 -63.820312 26.875 -64.890625 32.25 -64.890625 L 43.78125 -64.890625 C 49.15625 -64.890625 53.910156 -63.820312 58.046875 -61.6875 C 62.179688 -59.5625 65.398438 -56.554688 67.703125 -52.671875 C 70.015625 -48.785156 71.171875 -44.328125 71.171875 -39.296875 L 71.171875 -24.3125 C 71.171875 -19.28125 70.015625 -14.84375 67.703125 -11 C 65.398438 -7.164062 62.179688 -4.203125 58.046875 -2.109375 C 53.910156 -0.015625 49.109375 1.03125 43.640625 1.03125 Z M 43.390625 -13.953125 C 46.546875 -13.953125 49.0625 -15.039062 50.9375 -17.21875 C 52.820312 -19.394531 53.765625 -22.234375 53.765625 -25.734375 L 53.765625 -38.140625 C 53.765625 -41.640625 52.820312 -44.476562 50.9375 -46.65625 C 49.0625 -48.832031 46.585938 -49.921875 43.515625 -49.921875 L 32.515625 -49.921875 C 29.441406 -49.921875 26.960938 -48.832031 25.078125 -46.65625 C 23.203125 -44.476562 22.265625 -41.640625 22.265625 -38.140625 L 22.265625 -25.734375 C 22.265625 -22.234375 23.203125 -19.394531 25.078125 -17.21875 C 26.960938 -15.039062 29.398438 -13.953125 32.390625 -13.953125 Z M 43.390625 -13.953125 "/></g></g></g><g fill="#ffffff" fill-opacity="1"><g transform="translate(423.838397, 224.538512)"><g><path d="M 80.390625 -64.890625 C 86.867188 -64.890625 92.070312 -62.773438 96 -58.546875 C 99.925781 -54.328125 101.890625 -48.804688 101.890625 -41.984375 L 101.890625 0 L 84.484375 0 L 84.484375 -41.984375 C 84.484375 -44.367188 83.925781 -46.265625 82.8125 -47.671875 C 81.707031 -49.085938 80.257812 -49.796875 78.46875 -49.796875 L 72.953125 -49.796875 C 70.566406 -49.796875 68.476562 -48.921875 66.6875 -47.171875 C 64.894531 -45.421875 63.785156 -43.09375 63.359375 -40.1875 L 63.359375 0 L 45.953125 0 L 45.953125 -41.859375 C 45.953125 -44.242188 45.394531 -46.160156 44.28125 -47.609375 C 43.175781 -49.066406 41.726562 -49.796875 39.9375 -49.796875 L 34.9375 -49.796875 C 32.46875 -49.796875 30.289062 -48.6875 28.40625 -46.46875 C 26.53125 -44.25 25.335938 -41.347656 24.828125 -37.765625 L 24.828125 0 L 7.421875 0 L 7.421875 -63.875 L 23.546875 -63.875 L 23.546875 -56.453125 C 25.085938 -59.003906 27.070312 -61.046875 29.5 -62.578125 C 31.9375 -64.117188 34.390625 -64.890625 36.859375 -64.890625 L 44.03125 -64.890625 C 47.101562 -64.890625 49.894531 -64.078125 52.40625 -62.453125 C 54.925781 -60.835938 56.914062 -58.582031 58.375 -55.6875 C 60.25 -58.582031 62.484375 -60.835938 65.078125 -62.453125 C 67.679688 -64.078125 70.4375 -64.890625 73.34375 -64.890625 Z M 80.390625 -64.890625 "/></g></g></g><g fill="#ffffff" fill-opacity="1"><g transform="translate(532.37972, 224.538512)"><g><path d="M 38.40625 1.03125 C 31.832031 1.03125 26.046875 -0.375 21.046875 -3.1875 C 16.054688 -6.007812 12.195312 -10 9.46875 -15.15625 C 6.738281 -20.320312 5.375 -26.28125 5.375 -33.03125 L 5.375 -56.578125 C 5.375 -63.316406 6.757812 -69.265625 9.53125 -74.421875 C 12.3125 -79.585938 16.238281 -83.578125 21.3125 -86.390625 C 26.382812 -89.210938 32.25 -90.625 38.90625 -90.625 L 52.484375 -90.625 C 58.878906 -90.625 64.507812 -89.257812 69.375 -86.53125 C 74.238281 -83.800781 78.015625 -79.984375 80.703125 -75.078125 C 83.390625 -70.171875 84.734375 -64.472656 84.734375 -57.984375 L 67.328125 -57.984375 C 67.328125 -63.097656 65.960938 -67.210938 63.234375 -70.328125 C 60.503906 -73.453125 56.921875 -75.015625 52.484375 -75.015625 L 38.90625 -75.015625 C 34.132812 -75.015625 30.296875 -73.242188 27.390625 -69.703125 C 24.492188 -66.160156 23.046875 -61.53125 23.046875 -55.8125 L 23.046875 -33.796875 C 23.046875 -28.078125 24.453125 -23.445312 27.265625 -19.90625 C 30.078125 -16.363281 33.789062 -14.59375 38.40625 -14.59375 L 52.21875 -14.59375 C 56.75 -14.59375 60.441406 -16.34375 63.296875 -19.84375 C 66.148438 -23.34375 67.578125 -27.945312 67.578125 -33.65625 L 84.984375 -33.65625 C 84.984375 -26.75 83.617188 -20.671875 80.890625 -15.421875 C 78.160156 -10.171875 74.320312 -6.113281 69.375 -3.25 C 64.425781 -0.394531 58.707031 1.03125 52.21875 1.03125 Z M 38.40625 1.03125 "/></g></g></g><g fill="#ffffff" fill-opacity="1"><g transform="translate(620.441578, 224.538512)"><g><path d="M 7.421875 -89.59375 L 24.828125 -89.59375 L 24.828125 -57.46875 C 26.703125 -59.6875 29.023438 -61.476562 31.796875 -62.84375 C 34.578125 -64.207031 37.25 -64.890625 39.8125 -64.890625 L 47.75 -64.890625 C 54.570312 -64.890625 60.050781 -62.753906 64.1875 -58.484375 C 68.332031 -54.222656 70.40625 -48.59375 70.40625 -41.59375 L 70.40625 0 L 52.984375 0 L 52.984375 -40.953125 C 52.984375 -43.597656 52.28125 -45.734375 50.875 -47.359375 C 49.46875 -48.984375 47.65625 -49.796875 45.4375 -49.796875 L 37.5 -49.796875 C 34.519531 -49.796875 31.851562 -48.707031 29.5 -46.53125 C 27.15625 -44.351562 25.597656 -41.515625 24.828125 -38.015625 L 24.828125 0 L 7.421875 0 Z M 7.421875 -89.59375 "/></g></g></g><g fill="#ffffff" fill-opacity="1"><g transform="translate(697.495722, 224.538512)"><g><path d="M 27.640625 1.03125 C 20.984375 1.03125 15.609375 -0.628906 11.515625 -3.953125 C 7.421875 -7.285156 5.375 -11.6875 5.375 -17.15625 L 5.375 -21.890625 C 5.375 -27.265625 7.503906 -31.59375 11.765625 -34.875 C 16.035156 -38.164062 21.671875 -39.8125 28.671875 -39.8125 L 36.484375 -39.8125 C 38.703125 -39.8125 41.085938 -39.507812 43.640625 -38.90625 C 46.203125 -38.3125 48.550781 -37.503906 50.6875 -36.484375 L 50.6875 -43.140625 C 50.6875 -45.273438 49.984375 -47 48.578125 -48.3125 C 47.171875 -49.632812 45.316406 -50.296875 43.015625 -50.296875 L 32 -50.296875 C 29.613281 -50.296875 27.691406 -49.738281 26.234375 -48.625 C 24.785156 -47.519531 24.0625 -46.03125 24.0625 -44.15625 L 7.171875 -44.15625 C 7.171875 -50.382812 9.453125 -55.394531 14.015625 -59.1875 C 18.578125 -62.988281 24.570312 -64.890625 32 -64.890625 L 43.015625 -64.890625 C 50.515625 -64.890625 56.566406 -62.90625 61.171875 -58.9375 C 65.785156 -54.96875 68.09375 -49.703125 68.09375 -43.140625 L 68.09375 0 L 51.96875 0 L 51.96875 -7.6875 C 49.914062 -5.039062 47.394531 -2.925781 44.40625 -1.34375 C 41.425781 0.238281 38.484375 1.03125 35.578125 1.03125 Z M 36.859375 -12.28125 C 40.015625 -12.28125 42.832031 -13.09375 45.3125 -14.71875 C 47.789062 -16.34375 49.582031 -18.519531 50.6875 -21.25 L 50.6875 -23.421875 C 49.320312 -24.441406 47.421875 -25.25 44.984375 -25.84375 C 42.554688 -26.445312 39.976562 -26.75 37.25 -26.75 L 29.1875 -26.75 C 27.132812 -26.75 25.46875 -26.238281 24.1875 -25.21875 C 22.90625 -24.195312 22.265625 -22.832031 22.265625 -21.125 L 22.265625 -17.796875 C 22.265625 -16.171875 22.96875 -14.84375 24.375 -13.8125 C 25.789062 -12.789062 27.648438 -12.28125 29.953125 -12.28125 Z M 36.859375 -12.28125 "/></g></g></g><g fill="#ffffff" fill-opacity="1"><g transform="translate(772.245887, 224.538512)"><g><path d="M 7.421875 -63.875 L 23.546875 -63.875 L 23.546875 -55.6875 C 25.171875 -58.15625 27.5 -60.175781 30.53125 -61.75 C 33.5625 -63.332031 36.738281 -64.125 40.0625 -64.125 L 48.765625 -64.125 L 48.765625 -49.03125 L 40.0625 -49.03125 C 35.539062 -49.03125 31.867188 -47.660156 29.046875 -44.921875 C 26.234375 -42.191406 24.828125 -38.695312 24.828125 -34.4375 L 24.828125 0 L 7.421875 0 Z M 7.421875 -63.875 "/></g></g></g><g fill="#7ed957" fill-opacity="1"><g transform="translate(789.96838, 164.704269)"><g/></g></g><g fill="#7ed957" fill-opacity="1"><g transform="translate(826.830877, 164.704269)"><g><path d="M 15.359375 1.28125 C 12.203125 1.28125 9.660156 0.320312 7.734375 -1.59375 C 5.816406 -3.519531 4.859375 -6.0625 4.859375 -9.21875 C 4.859375 -12.375 5.816406 -14.910156 7.734375 -16.828125 C 9.660156 -18.753906 12.203125 -19.71875 15.359375 -19.71875 C 18.515625 -19.71875 21.050781 -18.753906 22.96875 -16.828125 C 24.894531 -14.910156 25.859375 -12.375 25.859375 -9.21875 C 25.859375 -6.0625 24.894531 -3.519531 22.96875 -1.59375 C 21.050781 0.320312 18.515625 1.28125 15.359375 1.28125 Z M 15.359375 1.28125 "/></g></g></g></svg>
